<?xml version="1.0" encoding="utf-8"?>
<!-- Generator: Adobe Illustrator 24.0.1, SVG Export Plug-In . SVG Version: 6.00 Build 0)  -->
<svg version="1.1" xmlns="http://www.w3.org/2000/svg" xmlns:xlink="http://www.w3.org/1999/xlink" x="0px" y="0px"
	 viewBox="0 0 842 1191" style="enable-background:new 0 0 842 1191;" xml:space="preserve">
<style type="text/css">
	.st0{fill:#E3E4E5;}
	.st1{fill:none;stroke:#000000;stroke-width:0.12;stroke-linecap:round;stroke-linejoin:round;stroke-miterlimit:10;}
	.st2{fill:none;stroke:#939393;stroke-width:0.5;stroke-miterlimit:10;}
	.st3{fill:#939393;}
	.st4{fill:none;stroke:#939393;stroke-width:0.75;stroke-miterlimit:10;}
	.st5{font-family:'Roboto-Black';}
	.st6{font-size:13.0625px;}
	.st7{fill:none;stroke:#000000;stroke-width:1.5;stroke-miterlimit:10;}
	.st8{font-size:11px;}
	.st9{fill:none;stroke:#939393;stroke-width:2;stroke-miterlimit:10;}
	.st10{fill:#7A8487;}
	.st11{fill:#939393;stroke:#939393;stroke-width:0.5;stroke-miterlimit:10;}
	.st12{fill:none;stroke:#7A8487;stroke-miterlimit:10;}
</style>
<g id="Layer_3">
	<path class="st0" d="M533.1,1042.7l-0.1,64.8l-71.3-0.1l1-16.5l-34.6,1l0.5,26.7H297.3l-1.1-76.2v-59.7l33.1-0.2
		c0,0,32.4-3,33.1-36.8c0.4-16.8,0.4-30.3,0.4-30.3l23.6-2c0,0-1.1-23.6,14.5-43.6c14.2-18.2,36.2-21,36.2-21l0.1-350.9l-3.9-1.2
		L433,485l-5.8-0.9v-33.9l5.8,0.3l0.4-11.8l3.3-1.9l0.5-122l-0.2-31.2l-35.5-1.3l1.3-24.9l34.5-2.3l0.1-20.7l-4.6-1.4l0.1-27.7
		l42.7-0.7l-0.2,36.2l90.2-0.8l-0.4,59.3l1.5,67.3l-94.5,1.5l0,480.5l43.9-0.4l0.3,82.3c0,0-3.6,32.8-41.6,45.8
		c-3.1,1.1-0.6,65-0.6,65L533.1,1042.7z"/>
</g>
<g id="Layer_1">
	<line class="st1" x1="298.2" y1="1110.2" x2="298.2" y2="1115.7"/>
	<line class="st1" x1="433.3" y1="205.8" x2="436.4" y2="205.8"/>
	<line class="st1" x1="436.4" y1="207" x2="562.7" y2="207"/>
	<line class="st1" x1="298.2" y1="1110.2" x2="298.2" y2="1115.7"/>
	<line class="st1" x1="299.7" y1="232.2" x2="434.2" y2="232.2"/>
	<line class="st1" x1="225" y1="383.8" x2="225" y2="387.6"/>
	<line class="st1" x1="437.3" y1="652.8" x2="438.8" y2="652.8"/>
	<line class="st1" x1="436.4" y1="205.8" x2="436.4" y2="207"/>
	<line class="st1" x1="436.4" y1="207.7" x2="487.8" y2="207.7"/>
	<line class="st1" x1="562.1" y1="207.5" x2="562.7" y2="208.3"/>
	<line class="st1" x1="562.1" y1="209" x2="562.7" y2="209.8"/>
	<line class="st1" x1="562.1" y1="208.7" x2="562.7" y2="207.9"/>
	<line class="st1" x1="562.1" y1="210.2" x2="562.7" y2="209.4"/>
	<line class="st1" x1="561.6" y1="207" x2="562.1" y2="207.5"/>
	<line class="st1" x1="559.9" y1="207" x2="560.6" y2="207.7"/>
	<line class="st1" x1="558.4" y1="207" x2="559.2" y2="207.7"/>
	<line class="st1" x1="556.7" y1="207" x2="557.6" y2="207.7"/>
	<line class="st1" x1="555.4" y1="207" x2="555.9" y2="207.7"/>
	<line class="st1" x1="553.7" y1="207" x2="554.5" y2="207.7"/>
	<line class="st1" x1="552.3" y1="207" x2="553.1" y2="207.7"/>
	<line class="st1" x1="550.6" y1="207" x2="551.5" y2="207.7"/>
	<line class="st1" x1="549.2" y1="207" x2="549.8" y2="207.7"/>
	<line class="st1" x1="547.6" y1="207" x2="548.4" y2="207.7"/>
	<line class="st1" x1="546.1" y1="207" x2="546.7" y2="207.7"/>
	<line class="st1" x1="544.4" y1="207" x2="545.4" y2="207.7"/>
	<line class="st1" x1="543" y1="207" x2="543.7" y2="207.7"/>
	<line class="st1" x1="541.4" y1="207" x2="542.2" y2="207.7"/>
	<line class="st1" x1="540" y1="207" x2="540.5" y2="207.7"/>
	<line class="st1" x1="538.3" y1="207" x2="539.1" y2="207.7"/>
	<line class="st1" x1="536.9" y1="207" x2="537.5" y2="207.7"/>
	<line class="st1" x1="535.3" y1="207" x2="536.1" y2="207.7"/>
	<line class="st1" x1="533.9" y1="207" x2="534.4" y2="207.7"/>
	<line class="st1" x1="532.2" y1="207" x2="533" y2="207.7"/>
	<line class="st1" x1="530.7" y1="207" x2="531.4" y2="207.7"/>
	<line class="st1" x1="529" y1="207" x2="529.9" y2="207.7"/>
	<line class="st1" x1="527.7" y1="207" x2="528.3" y2="207.7"/>
	<line class="st1" x1="526" y1="207" x2="526.8" y2="207.7"/>
	<line class="st1" x1="524.6" y1="207" x2="525.2" y2="207.7"/>
	<line class="st1" x1="522.9" y1="207" x2="523.8" y2="207.7"/>
	<line class="st1" x1="521.5" y1="207" x2="522.1" y2="207.7"/>
	<line class="st1" x1="519.9" y1="207" x2="520.7" y2="207.7"/>
	<line class="st1" x1="518.2" y1="207" x2="519" y2="207.7"/>
	<line class="st1" x1="516.8" y1="207" x2="517.7" y2="207.7"/>
	<line class="st1" x1="515.3" y1="207" x2="516" y2="207.7"/>
	<line class="st1" x1="513.8" y1="207" x2="514.5" y2="207.7"/>
	<line class="st1" x1="512.1" y1="207" x2="512.8" y2="207.7"/>
	<line class="st1" x1="510.6" y1="207" x2="511.4" y2="207.7"/>
	<line class="st1" x1="508.9" y1="207" x2="509.8" y2="207.7"/>
	<line class="st1" x1="507.6" y1="207" x2="508.4" y2="207.7"/>
	<line class="st1" x1="505.9" y1="207" x2="506.7" y2="207.7"/>
	<line class="st1" x1="504.5" y1="207" x2="505.3" y2="207.7"/>
	<line class="st1" x1="502.8" y1="207" x2="503.7" y2="207.7"/>
	<line class="st1" x1="501.3" y1="207" x2="502.3" y2="207.7"/>
	<line class="st1" x1="499.8" y1="207" x2="500.6" y2="207.7"/>
	<line class="st1" x1="498.3" y1="207" x2="499.1" y2="207.7"/>
	<line class="st1" x1="496.6" y1="207" x2="497.6" y2="207.7"/>
	<line class="st1" x1="495.2" y1="207" x2="496.1" y2="207.7"/>
	<line class="st1" x1="493.6" y1="207" x2="494.4" y2="207.7"/>
	<line class="st1" x1="492.2" y1="207" x2="493" y2="207.7"/>
	<line class="st1" x1="490.5" y1="207" x2="491.3" y2="207.7"/>
	<line class="st1" x1="489.1" y1="207" x2="489.7" y2="207.7"/>
	<line class="st1" x1="487.5" y1="207" x2="488.3" y2="207.7"/>
	<line class="st1" x1="486.1" y1="207" x2="486.8" y2="207.7"/>
	<line class="st1" x1="484.4" y1="207" x2="485.1" y2="207.7"/>
	<line class="st1" x1="482.9" y1="207" x2="483.6" y2="207.7"/>
	<line class="st1" x1="481.2" y1="207" x2="482.1" y2="207.7"/>
	<line class="st1" x1="479.8" y1="207" x2="480.7" y2="207.7"/>
	<line class="st1" x1="478.2" y1="207" x2="479" y2="207.7"/>
	<line class="st1" x1="476.8" y1="207" x2="477.4" y2="207.7"/>
	<line class="st1" x1="475.1" y1="207" x2="476" y2="207.7"/>
	<line class="st1" x1="473.7" y1="207" x2="474.3" y2="207.7"/>
	<line class="st1" x1="472.1" y1="207" x2="472.9" y2="207.7"/>
	<line class="st1" x1="470.6" y1="207" x2="471.2" y2="207.7"/>
	<line class="st1" x1="468.9" y1="207" x2="469.7" y2="207.7"/>
	<line class="st1" x1="467.5" y1="207" x2="468.2" y2="207.7"/>
	<line class="st1" x1="465.9" y1="207" x2="466.7" y2="207.7"/>
	<line class="st1" x1="464.5" y1="207" x2="465" y2="207.7"/>
	<line class="st1" x1="462.8" y1="207" x2="463.6" y2="207.7"/>
	<line class="st1" x1="461.4" y1="207" x2="462" y2="207.7"/>
	<line class="st1" x1="459.7" y1="207" x2="460.6" y2="207.7"/>
	<line class="st1" x1="458.4" y1="207" x2="458.9" y2="207.7"/>
	<line class="st1" x1="456.7" y1="207" x2="457.5" y2="207.7"/>
	<line class="st1" x1="455.2" y1="207" x2="455.9" y2="207.7"/>
	<line class="st1" x1="453.5" y1="207" x2="454.4" y2="207.7"/>
	<line class="st1" x1="452" y1="207" x2="452.8" y2="207.7"/>
	<line class="st1" x1="450.5" y1="207" x2="451.3" y2="207.7"/>
	<line class="st1" x1="449.1" y1="207" x2="449.6" y2="207.7"/>
	<line class="st1" x1="447.4" y1="207" x2="448.3" y2="207.7"/>
	<line class="st1" x1="445.8" y1="207" x2="446.6" y2="207.7"/>
	<line class="st1" x1="444.4" y1="207" x2="445.2" y2="207.7"/>
	<line class="st1" x1="443" y1="207" x2="443.5" y2="207.7"/>
	<line class="st1" x1="441.3" y1="207" x2="442" y2="207.7"/>
	<line class="st1" x1="439.7" y1="207" x2="440.5" y2="207.7"/>
	<line class="st1" x1="438.3" y1="207" x2="439" y2="207.7"/>
	<line class="st1" x1="436.8" y1="207" x2="437.3" y2="207.7"/>
	<line class="st1" x1="436.6" y1="207.7" x2="437.3" y2="207"/>
	<line class="st1" x1="438.1" y1="207.7" x2="438.8" y2="207"/>
	<line class="st1" x1="439.6" y1="207.7" x2="440.3" y2="207"/>
	<line class="st1" x1="441" y1="207.7" x2="442" y2="207"/>
	<line class="st1" x1="442.7" y1="207.7" x2="443.5" y2="207"/>
	<line class="st1" x1="444.3" y1="207.7" x2="444.9" y2="207"/>
	<line class="st1" x1="445.8" y1="207.7" x2="446.5" y2="207"/>
	<line class="st1" x1="447.4" y1="207.7" x2="448.2" y2="207"/>
	<line class="st1" x1="448.8" y1="207.7" x2="449.6" y2="207"/>
	<line class="st1" x1="450.4" y1="207.7" x2="451.1" y2="207"/>
	<line class="st1" x1="452" y1="207.7" x2="452.6" y2="207"/>
	<line class="st1" x1="453.5" y1="207.7" x2="454.3" y2="207"/>
	<line class="st1" x1="455" y1="207.7" x2="455.8" y2="207"/>
	<line class="st1" x1="456.5" y1="207.7" x2="457.5" y2="207"/>
	<line class="st1" x1="458.1" y1="207.7" x2="458.8" y2="207"/>
	<line class="st1" x1="459.7" y1="207.7" x2="460.5" y2="207"/>
	<line class="st1" x1="461.1" y1="207.7" x2="462" y2="207"/>
	<line class="st1" x1="462.7" y1="207.7" x2="463.6" y2="207"/>
	<line class="st1" x1="464.2" y1="207.7" x2="465" y2="207"/>
	<line class="st1" x1="465.8" y1="207.7" x2="466.5" y2="207"/>
	<line class="st1" x1="467.5" y1="207.7" x2="468.2" y2="207"/>
	<line class="st1" x1="468.8" y1="207.7" x2="469.7" y2="207"/>
	<line class="st1" x1="470.4" y1="207.7" x2="471.2" y2="207"/>
	<line class="st1" x1="472" y1="207.7" x2="472.6" y2="207"/>
	<line class="st1" x1="473.7" y1="207.7" x2="474.3" y2="207"/>
	<line class="st1" x1="475.1" y1="207.7" x2="475.9" y2="207"/>
	<line class="st1" x1="476.5" y1="207.7" x2="477.4" y2="207"/>
	<line class="st1" x1="478.1" y1="207.7" x2="478.7" y2="207"/>
	<line class="st1" x1="479.8" y1="207.7" x2="480.4" y2="207"/>
	<line class="st1" x1="481.2" y1="207.7" x2="482" y2="207"/>
	<line class="st1" x1="482.7" y1="207.7" x2="483.6" y2="207"/>
	<line class="st1" x1="484.2" y1="207.7" x2="485.1" y2="207"/>
	<line class="st1" x1="485.9" y1="207.7" x2="486.6" y2="207"/>
	<line class="st1" x1="487.4" y1="207.7" x2="488.1" y2="207"/>
	<line class="st1" x1="488.8" y1="207.7" x2="489.7" y2="207"/>
	<line class="st1" x1="490.4" y1="207.7" x2="491.3" y2="207"/>
	<line class="st1" x1="492.1" y1="207.7" x2="492.7" y2="207"/>
	<line class="st1" x1="493.5" y1="207.7" x2="494.3" y2="207"/>
	<line class="st1" x1="495.2" y1="207.7" x2="495.9" y2="207"/>
	<line class="st1" x1="496.5" y1="207.7" x2="497.4" y2="207"/>
	<line class="st1" x1="498.2" y1="207.7" x2="498.9" y2="207"/>
	<line class="st1" x1="499.6" y1="207.7" x2="500.4" y2="207"/>
	<line class="st1" x1="501.3" y1="207.7" x2="502" y2="207"/>
	<line class="st1" x1="502.8" y1="207.7" x2="503.6" y2="207"/>
	<line class="st1" x1="504.3" y1="207.7" x2="505.3" y2="207"/>
	<line class="st1" x1="505.8" y1="207.7" x2="506.6" y2="207"/>
	<line class="st1" x1="507.5" y1="207.7" x2="508.1" y2="207"/>
	<line class="st1" x1="508.9" y1="207.7" x2="509.7" y2="207"/>
	<line class="st1" x1="510.5" y1="207.7" x2="511.4" y2="207"/>
	<line class="st1" x1="512.1" y1="207.7" x2="512.8" y2="207"/>
	<line class="st1" x1="513.6" y1="207.7" x2="514.3" y2="207"/>
	<line class="st1" x1="515.3" y1="207.7" x2="515.8" y2="207"/>
	<line class="st1" x1="516.5" y1="207.7" x2="517.5" y2="207"/>
	<line class="st1" x1="518.2" y1="207.7" x2="519" y2="207"/>
	<line class="st1" x1="519.8" y1="207.7" x2="520.4" y2="207"/>
	<line class="st1" x1="521.5" y1="207.7" x2="522" y2="207"/>
	<line class="st1" x1="522.9" y1="207.7" x2="523.7" y2="207"/>
	<line class="st1" x1="524.3" y1="207.7" x2="525.1" y2="207"/>
	<line class="st1" x1="525.9" y1="207.7" x2="526.6" y2="207"/>
	<line class="st1" x1="527.5" y1="207.7" x2="528.1" y2="207"/>
	<line class="st1" x1="529" y1="207.7" x2="529.8" y2="207"/>
	<line class="st1" x1="530.5" y1="207.7" x2="531.3" y2="207"/>
	<line class="st1" x1="532" y1="207.7" x2="533" y2="207"/>
	<line class="st1" x1="533.6" y1="207.7" x2="534.4" y2="207"/>
	<line class="st1" x1="535.2" y1="207.7" x2="536" y2="207"/>
	<line class="st1" x1="536.6" y1="207.7" x2="537.4" y2="207"/>
	<line class="st1" x1="538.2" y1="207.7" x2="539.1" y2="207"/>
	<line class="st1" x1="539.7" y1="207.7" x2="540.5" y2="207"/>
	<line class="st1" x1="541.3" y1="207.7" x2="542.1" y2="207"/>
	<line class="st1" x1="543" y1="207.7" x2="543.5" y2="207"/>
	<line class="st1" x1="544.4" y1="207.7" x2="545.2" y2="207"/>
	<line class="st1" x1="545.9" y1="207.7" x2="546.7" y2="207"/>
	<line class="st1" x1="547.5" y1="207.7" x2="548.2" y2="207"/>
	<line class="st1" x1="549.2" y1="207.7" x2="549.7" y2="207"/>
	<line class="st1" x1="550.6" y1="207.7" x2="551.4" y2="207"/>
	<line class="st1" x1="552" y1="207.7" x2="552.8" y2="207"/>
	<line class="st1" x1="553.6" y1="207.7" x2="554.5" y2="207"/>
	<line class="st1" x1="555.3" y1="207.7" x2="555.8" y2="207"/>
	<line class="st1" x1="556.7" y1="207.7" x2="557.5" y2="207"/>
	<line class="st1" x1="558.2" y1="207.7" x2="558.9" y2="207"/>
	<line class="st1" x1="559.7" y1="207.7" x2="560.6" y2="207"/>
	<line class="st1" x1="561.4" y1="207.7" x2="562.1" y2="207"/>
	<line class="st1" x1="299.7" y1="982" x2="299.7" y2="981.8"/>
	<line class="st1" x1="299.7" y1="369.9" x2="299.7" y2="370"/>
	<line class="st1" x1="432.9" y1="1117.3" x2="436.6" y2="1121.1"/>
	<line class="st1" x1="432.9" y1="1118.1" x2="435.9" y2="1121.1"/>
	<line class="st1" x1="432.9" y1="1119" x2="435.1" y2="1121.1"/>
	<line class="st1" x1="432.9" y1="1119.6" x2="434.3" y2="1121.1"/>
	<line class="st1" x1="432.9" y1="1120.4" x2="433.4" y2="1121.1"/>
	<line class="st1" x1="299.7" y1="500.7" x2="299.8" y2="500.7"/>
	<line class="st1" x1="299.7" y1="631.4" x2="299.9" y2="631.4"/>
	<line class="st1" x1="299.7" y1="783.9" x2="299.9" y2="783.9"/>
	<line class="st1" x1="387.8" y1="914.9" x2="310.1" y2="914.9"/>
	<line class="st1" x1="386.4" y1="913.3" x2="310.1" y2="913.3"/>
	<line class="st1" x1="299.7" y1="913.3" x2="302.5" y2="913.3"/>
	<line class="st1" x1="299.7" y1="914.9" x2="302.5" y2="914.9"/>
	<line class="st1" x1="300.6" y1="913.3" x2="301.9" y2="914.9"/>
	<line class="st1" x1="299.7" y1="914.6" x2="299.7" y2="914.9"/>
	<line class="st1" x1="302.3" y1="913.3" x2="302.5" y2="913.6"/>
	<line class="st1" x1="299.9" y1="913.3" x2="301.4" y2="914.9"/>
	<line class="st1" x1="363.3" y1="914.9" x2="364.2" y2="915.8"/>
	<line class="st1" x1="386.4" y1="913.3" x2="387.3" y2="914.2"/>
	<line class="st1" x1="385.6" y1="913.3" x2="387.3" y2="914.9"/>
	<line class="st1" x1="384.8" y1="913.3" x2="386.5" y2="914.9"/>
	<line class="st1" x1="384.2" y1="913.3" x2="385.6" y2="914.9"/>
	<line class="st1" x1="383.3" y1="913.3" x2="385.1" y2="914.9"/>
	<line class="st1" x1="382.6" y1="913.3" x2="384.2" y2="914.9"/>
	<line class="st1" x1="381.7" y1="913.3" x2="383.4" y2="914.9"/>
	<line class="st1" x1="381" y1="913.3" x2="382.6" y2="914.9"/>
	<line class="st1" x1="380.3" y1="913.3" x2="382" y2="914.9"/>
	<line class="st1" x1="379.5" y1="913.3" x2="381.2" y2="914.9"/>
	<line class="st1" x1="378.7" y1="913.3" x2="380.4" y2="914.9"/>
	<line class="st1" x1="378" y1="913.3" x2="379.5" y2="914.9"/>
	<line class="st1" x1="377.1" y1="913.3" x2="378.7" y2="914.9"/>
	<line class="st1" x1="376.5" y1="913.3" x2="378" y2="914.9"/>
	<line class="st1" x1="375.6" y1="913.3" x2="377.2" y2="914.9"/>
	<line class="st1" x1="374.9" y1="913.3" x2="376.5" y2="914.9"/>
	<line class="st1" x1="374.1" y1="913.3" x2="375.6" y2="914.9"/>
	<line class="st1" x1="373.3" y1="913.3" x2="375" y2="914.9"/>
	<line class="st1" x1="372.5" y1="913.3" x2="374.1" y2="914.9"/>
	<line class="st1" x1="371.6" y1="913.3" x2="373.3" y2="914.9"/>
	<line class="st1" x1="371" y1="913.3" x2="372.5" y2="914.9"/>
	<line class="st1" x1="370.3" y1="913.3" x2="371.9" y2="914.9"/>
	<line class="st1" x1="369.4" y1="913.3" x2="371.1" y2="914.9"/>
	<line class="st1" x1="368.8" y1="913.3" x2="370.3" y2="914.9"/>
	<line class="st1" x1="368" y1="913.3" x2="369.4" y2="914.9"/>
	<line class="st1" x1="367.1" y1="913.3" x2="368.9" y2="914.9"/>
	<line class="st1" x1="366.4" y1="913.3" x2="368" y2="914.9"/>
	<line class="st1" x1="365.5" y1="913.3" x2="367.2" y2="914.9"/>
	<line class="st1" x1="364.8" y1="913.3" x2="366.4" y2="914.9"/>
	<line class="st1" x1="364.1" y1="913.3" x2="365.8" y2="914.9"/>
	<line class="st1" x1="363.3" y1="913.3" x2="365" y2="914.9"/>
	<line class="st1" x1="362.6" y1="913.3" x2="364.1" y2="914.9"/>
	<line class="st1" x1="361.6" y1="913.3" x2="363.3" y2="914.9"/>
	<line class="st1" x1="360.9" y1="913.3" x2="362.6" y2="914.9"/>
	<line class="st1" x1="360.4" y1="913.3" x2="361.8" y2="914.9"/>
	<line class="st1" x1="359.4" y1="913.3" x2="361.1" y2="914.9"/>
	<line class="st1" x1="358.7" y1="913.3" x2="360.4" y2="914.9"/>
	<line class="st1" x1="357.9" y1="913.3" x2="359.6" y2="914.9"/>
	<line class="st1" x1="357.1" y1="913.3" x2="358.8" y2="914.9"/>
	<line class="st1" x1="356.5" y1="913.3" x2="357.9" y2="914.9"/>
	<line class="st1" x1="355.4" y1="913.3" x2="357.1" y2="914.9"/>
	<line class="st1" x1="354.8" y1="913.3" x2="356.5" y2="914.9"/>
	<line class="st1" x1="354" y1="913.3" x2="355.7" y2="914.9"/>
	<line class="st1" x1="353.2" y1="913.3" x2="354.9" y2="914.9"/>
	<line class="st1" x1="352.6" y1="913.3" x2="354" y2="914.9"/>
	<line class="st1" x1="351.6" y1="913.3" x2="353.5" y2="914.9"/>
	<line class="st1" x1="351" y1="913.3" x2="352.6" y2="914.9"/>
	<line class="st1" x1="350.3" y1="913.3" x2="351.8" y2="914.9"/>
	<line class="st1" x1="349.4" y1="913.3" x2="351" y2="914.9"/>
	<line class="st1" x1="348.6" y1="913.3" x2="350.3" y2="914.9"/>
	<line class="st1" x1="347.9" y1="913.3" x2="349.6" y2="914.9"/>
	<line class="st1" x1="347.1" y1="913.3" x2="348.8" y2="914.9"/>
	<line class="st1" x1="346.4" y1="913.3" x2="347.9" y2="914.9"/>
	<line class="st1" x1="345.5" y1="913.3" x2="347.3" y2="914.9"/>
	<line class="st1" x1="344.9" y1="913.3" x2="346.4" y2="914.9"/>
	<line class="st1" x1="343.9" y1="913.3" x2="345.6" y2="914.9"/>
	<line class="st1" x1="343.3" y1="913.3" x2="344.9" y2="914.9"/>
	<line class="st1" x1="342.5" y1="913.3" x2="344.2" y2="914.9"/>
	<line class="st1" x1="341.7" y1="913.3" x2="343.4" y2="914.9"/>
	<line class="st1" x1="340.9" y1="913.3" x2="342.5" y2="914.9"/>
	<line class="st1" x1="340.3" y1="913.3" x2="341.7" y2="914.9"/>
	<line class="st1" x1="339.4" y1="913.3" x2="341.2" y2="914.9"/>
	<line class="st1" x1="338.7" y1="913.3" x2="340.3" y2="914.9"/>
	<line class="st1" x1="337.8" y1="913.3" x2="339.5" y2="914.9"/>
	<line class="st1" x1="337.1" y1="913.3" x2="338.7" y2="914.9"/>
	<line class="st1" x1="336.4" y1="913.3" x2="338.1" y2="914.9"/>
	<line class="st1" x1="335.6" y1="913.3" x2="337.3" y2="914.9"/>
	<line class="st1" x1="334.8" y1="913.3" x2="336.4" y2="914.9"/>
	<line class="st1" x1="333.9" y1="913.3" x2="335.6" y2="914.9"/>
	<line class="st1" x1="333.2" y1="913.3" x2="334.8" y2="914.9"/>
	<line class="st1" x1="332.4" y1="913.3" x2="334.1" y2="914.9"/>
	<line class="st1" x1="331.7" y1="913.3" x2="333.4" y2="914.9"/>
	<line class="st1" x1="331" y1="913.3" x2="332.4" y2="914.9"/>
	<line class="st1" x1="330.2" y1="913.3" x2="331.9" y2="914.9"/>
	<line class="st1" x1="329.4" y1="913.3" x2="331.1" y2="914.9"/>
	<line class="st1" x1="328.7" y1="913.3" x2="330.2" y2="914.9"/>
	<line class="st1" x1="327.7" y1="913.3" x2="329.4" y2="914.9"/>
	<line class="st1" x1="327.1" y1="913.3" x2="328.7" y2="914.9"/>
	<line class="st1" x1="326.3" y1="913.3" x2="328" y2="914.9"/>
	<line class="st1" x1="325.5" y1="913.3" x2="327.2" y2="914.9"/>
	<line class="st1" x1="324.9" y1="913.3" x2="326.3" y2="914.9"/>
	<line class="st1" x1="323.8" y1="913.3" x2="325.8" y2="914.9"/>
	<line class="st1" x1="323.3" y1="913.3" x2="324.9" y2="914.9"/>
	<line class="st1" x1="322.4" y1="913.3" x2="324.1" y2="914.9"/>
	<line class="st1" x1="321.6" y1="913.3" x2="323.3" y2="914.9"/>
	<line class="st1" x1="320.9" y1="913.3" x2="322.5" y2="914.9"/>
	<line class="st1" x1="320.2" y1="913.3" x2="321.9" y2="914.9"/>
	<line class="st1" x1="319.4" y1="913.3" x2="321.1" y2="914.9"/>
	<line class="st1" x1="318.7" y1="913.3" x2="320.2" y2="914.9"/>
	<line class="st1" x1="317.7" y1="913.3" x2="319.6" y2="914.9"/>
	<line class="st1" x1="317.2" y1="913.3" x2="318.7" y2="914.9"/>
	<line class="st1" x1="316.2" y1="913.3" x2="317.9" y2="914.9"/>
	<line class="st1" x1="315.5" y1="913.3" x2="317.2" y2="914.9"/>
	<line class="st1" x1="314.8" y1="913.3" x2="316.2" y2="914.9"/>
	<line class="st1" x1="314" y1="913.3" x2="315.7" y2="914.9"/>
	<line class="st1" x1="313.2" y1="913.3" x2="314.8" y2="914.9"/>
	<line class="st1" x1="312.3" y1="913.3" x2="314" y2="914.9"/>
	<line class="st1" x1="311.5" y1="913.3" x2="313.2" y2="914.9"/>
	<line class="st1" x1="311" y1="913.3" x2="312.6" y2="914.9"/>
	<line class="st1" x1="310.1" y1="913.3" x2="311.8" y2="914.9"/>
	<line class="st1" x1="310.1" y1="914" x2="311" y2="914.9"/>
	<line class="st1" x1="310.1" y1="914.9" x2="310.2" y2="914.9"/>
	<line class="st1" x1="437.3" y1="846.2" x2="437.5" y2="846.2"/>
	<line class="st1" x1="386.5" y1="912.7" x2="388.1" y2="914.1"/>
	<line class="st1" x1="386.4" y1="913.3" x2="387.8" y2="914.9"/>
	<line class="st1" x1="434.7" y1="437.1" x2="434.7" y2="451"/>
	<line class="st1" x1="433" y1="497.7" x2="433" y2="485.4"/>
	<line class="st1" x1="434.7" y1="497.7" x2="434.7" y2="483.7"/>
	<line class="st1" x1="433" y1="449.5" x2="427.7" y2="449.5"/>
	<line class="st1" x1="433" y1="485.4" x2="427.7" y2="485.4"/>
	<polyline class="st1" points="429.4,483.7 434.7,483.7 434.7,497.7 	"/>
	<line class="st1" x1="489.5" y1="207.7" x2="562.1" y2="207.7"/>
	<line class="st1" x1="299.5" y1="979.9" x2="299.7" y2="979.9"/>
	<line class="st1" x1="427.7" y1="456.5" x2="427.7" y2="449.5"/>
	<line class="st1" x1="434.3" y1="483.7" x2="434.7" y2="483.9"/>
	<line class="st1" x1="433.5" y1="483.7" x2="434.7" y2="484.9"/>
	<line class="st1" x1="432.9" y1="483.7" x2="434.7" y2="485.4"/>
	<line class="st1" x1="432.1" y1="483.7" x2="434.7" y2="486.3"/>
	<line class="st1" x1="433" y1="485.4" x2="434.7" y2="487.1"/>
	<line class="st1" x1="431.3" y1="483.7" x2="432.9" y2="485.4"/>
	<line class="st1" x1="433" y1="486.2" x2="434.7" y2="487.9"/>
	<line class="st1" x1="430.7" y1="483.7" x2="432.4" y2="485.4"/>
	<line class="st1" x1="433" y1="487" x2="434.7" y2="488.5"/>
	<line class="st1" x1="429.9" y1="483.7" x2="431.6" y2="485.4"/>
	<line class="st1" x1="433" y1="487.6" x2="434.7" y2="489.3"/>
	<line class="st1" x1="433" y1="488.5" x2="434.7" y2="490.1"/>
	<line class="st1" x1="427.7" y1="483.9" x2="429.1" y2="485.4"/>
	<line class="st1" x1="433" y1="489.2" x2="434.7" y2="491"/>
	<line class="st1" x1="427.7" y1="484.5" x2="428.5" y2="485.4"/>
	<line class="st1" x1="433" y1="490.1" x2="434.7" y2="491.5"/>
	<line class="st1" x1="433" y1="490.7" x2="434.7" y2="492.4"/>
	<line class="st1" x1="433" y1="491.5" x2="434.7" y2="493.2"/>
	<line class="st1" x1="433" y1="492.3" x2="434.7" y2="494"/>
	<line class="st1" x1="433" y1="493.1" x2="434.7" y2="494.7"/>
	<line class="st1" x1="433" y1="494" x2="434.7" y2="495.4"/>
	<line class="st1" x1="433" y1="494.7" x2="434.7" y2="496.4"/>
	<line class="st1" x1="433" y1="495.4" x2="434.7" y2="497.1"/>
	<line class="st1" x1="433" y1="496.2" x2="434.6" y2="497.7"/>
	<line class="st1" x1="433" y1="496.9" x2="433.8" y2="497.7"/>
	<line class="st1" x1="434.2" y1="437.1" x2="434.7" y2="437.8"/>
	<line class="st1" x1="433.4" y1="437.1" x2="434.7" y2="438.5"/>
	<line class="st1" x1="433" y1="437.6" x2="434.7" y2="439.3"/>
	<line class="st1" x1="433" y1="449.2" x2="434.7" y2="450.8"/>
	<line class="st1" x1="432.5" y1="449.5" x2="434.2" y2="451"/>
	<line class="st1" x1="432" y1="449.5" x2="433.4" y2="451"/>
	<line class="st1" x1="437.3" y1="431.8" x2="437.7" y2="432.2"/>
	<line class="st1" x1="438.6" y1="502.5" x2="438.8" y2="502.8"/>
	<line class="st1" x1="437.9" y1="502.5" x2="438.8" y2="503.4"/>
	<line class="st1" x1="437.3" y1="502.5" x2="438.8" y2="504.2"/>
	<line class="st1" x1="437.3" y1="503.4" x2="438.8" y2="505"/>
	<line class="st1" x1="437.3" y1="504.2" x2="438.8" y2="505.9"/>
	<line class="st1" x1="437.3" y1="505" x2="438.8" y2="506.5"/>
	<line class="st1" x1="437.3" y1="505.6" x2="438.8" y2="507.3"/>
	<line class="st1" x1="437.3" y1="506.4" x2="438.8" y2="508.1"/>
	<line class="st1" x1="437.3" y1="507.3" x2="438.8" y2="508.9"/>
	<line class="st1" x1="437.3" y1="508.1" x2="438.8" y2="509.8"/>
	<line class="st1" x1="437.3" y1="508.9" x2="438.8" y2="510.3"/>
	<line class="st1" x1="437.3" y1="509.6" x2="438.8" y2="511.1"/>
	<line class="st1" x1="437.3" y1="510.3" x2="438.8" y2="512"/>
	<line class="st1" x1="437.3" y1="511.1" x2="438.8" y2="512.7"/>
	<line class="st1" x1="437.3" y1="511.8" x2="438.8" y2="513.5"/>
	<line class="st1" x1="437.3" y1="512.6" x2="438.8" y2="514.3"/>
	<line class="st1" x1="437.3" y1="513.5" x2="438.8" y2="515"/>
	<line class="st1" x1="437.3" y1="514.3" x2="438.8" y2="516"/>
	<line class="st1" x1="437.3" y1="515" x2="438.8" y2="516.6"/>
	<line class="st1" x1="437.3" y1="515.7" x2="438.8" y2="517.4"/>
	<line class="st1" x1="437.3" y1="516.5" x2="438.8" y2="518.2"/>
	<line class="st1" x1="437.3" y1="517.4" x2="438.8" y2="518.8"/>
	<line class="st1" x1="437.3" y1="517.9" x2="438.8" y2="519.9"/>
	<line class="st1" x1="437.3" y1="518.8" x2="438.8" y2="520.4"/>
	<line class="st1" x1="437.3" y1="519.6" x2="438.8" y2="521.2"/>
	<line class="st1" x1="437.3" y1="652.1" x2="438.1" y2="652.8"/>
	<rect x="490.9" y="883" class="st3" width="10.2" height="4.6"/>
	<rect x="473.3" y="882.9" class="st3" width="10.1" height="4.7"/>
	
		<rect x="456.5" y="866" transform="matrix(-1.836970e-16 1 -1 -1.836970e-16 1343.9993 392.7656)" class="st3" width="38.3" height="4.7"/>
	<rect x="473.4" y="849.3" class="st3" width="43.3" height="4.7"/>
	
		<rect x="495.8" y="866.6" transform="matrix(-1.836970e-16 1 -1 -1.836970e-16 1383.3296 354.5129)" class="st3" width="37.2" height="4.6"/>
	<rect x="508.3" y="883" class="st3" width="7.2" height="4.6"/>
	
		<rect x="-78" y="605.1" transform="matrix(6.123234e-17 -1 1 6.123234e-17 -308.9418 905.3129)" class="st3" width="752.4" height="4"/>
	<rect x="295.8" y="231" class="st3" width="145.4" height="4.1"/>
	<rect x="432.9" y="204.3" class="st3" width="133.3" height="4.1"/>
	<path class="st3" d="M435.2,503.2h-0.3v0h-40.5v0.5h3.3v11.1h-3.4v0.5h29.1v4.6h0.3v0h11.2v0h0.3V503.2z M400.9,514.8h-2.7v-11.1
		h2.7V514.8z M404.1,514.8h-2.7v-11.1h2.7V514.8z M407.3,514.8h-2.7v-11.1h2.7V514.8z M410.5,514.8h-2.7v-11.1h2.7V514.8z
		 M413.7,514.8H411v-11.1h2.7V514.8z M416.9,514.8h-2.7v-11.1h2.7V514.8z M420.2,514.8h-2.7v-11.1h2.7V514.8z M423.4,514.8h-2.7
		v-11.1h2.7V514.8z M423.9,503.7h10.7v11.1h-10.7V503.7z M423.9,515.3h10.7v1.7h-10.7V515.3z M423.9,517.6h10.7v1.7h-10.7V517.6z"/>
	<rect x="297.7" y="497.2" class="st3" width="141.1" height="4"/>
	
		<rect x="425.4" y="508.6" transform="matrix(-1.836970e-16 1 -1 -1.836970e-16 947.5505 71.8327)" class="st3" width="24.9" height="2.1"/>
	
		<rect x="407.6" y="565.5" transform="matrix(-1.836970e-16 1 -1 -1.836970e-16 1004.3087 128.6434)" class="st3" width="60.5" height="2"/>
	<path class="st3" d="M434.9,609.7L434.9,609.7l-11.2,0v0h-0.3v4.7h-28.8v0h-0.5v12.2h0.2v0h29.1v0h0.5v0h10.7v0h0.5v-16.9H434.9z
		 M434.6,610.2v1.7h-10.7v-1.7H434.6z M423.9,612.5h10.7v1.9h-10.7V612.5z M401.4,615h2.7V626h-2.7V615z M400.8,626h-2.7V615h2.7
		V626z M404.6,615h2.7V626h-2.7V615z M407.8,615h2.7V626h-2.7V615z M411,615h2.7V626H411V615z M414.2,615h2.7V626h-2.7V615z
		 M417.4,615h2.7V626h-2.7V615z M397.6,615V626h-3V615H397.6z M420.7,626V615h2.7V626H420.7z M423.9,626V615h10.7V626H423.9z"/>
	<rect x="297.3" y="629.3" class="st3" width="141.1" height="4"/>
	
		<rect x="415" y="630" transform="matrix(-1.836970e-16 1 -1 -1.836970e-16 1068.7283 193.2569)" class="st3" width="45.5" height="2.1"/>
	
		<rect x="398.9" y="706.6" transform="matrix(-1.836970e-16 1 -1 -1.836970e-16 1145.6421 269.6631)" class="st3" width="78.2" height="2.1"/>
	<polyline class="st2" points="302.1,626.4 394.3,626.4 394.3,503.4 302.1,503.4 302.1,626.4 	"/>
	<rect x="297.4" y="776.9" class="st3" width="141.1" height="4"/>
	<rect x="296.5" y="912.2" class="st3" width="92" height="4"/>
	
		<rect x="426" y="490.4" transform="matrix(-1.836970e-16 1 -1 -1.836970e-16 925.2229 57.6039)" class="st3" width="15.6" height="2.1"/>
	
		<rect x="420.7" y="477.1" transform="matrix(-1.836970e-16 1 -1 -1.836970e-16 906.4674 49.8209)" class="st3" width="15.1" height="2.1"/>
	
		<rect x="424.2" y="451.9" transform="matrix(-1.836970e-16 1 -1 -1.836970e-16 881.2122 24.7675)" class="st3" width="8" height="2.1"/>
	
		<rect x="427.2" y="449" transform="matrix(-1 -1.224647e-16 1.224647e-16 -1 862.2931 900.0719)" class="st3" width="8" height="2.1"/>
	
		<rect x="426.9" y="442.9" transform="matrix(6.123234e-17 -1 1 6.123234e-17 -9.8905 878.032)" class="st3" width="14.3" height="2.1"/>
	
		<rect x="433" y="436" transform="matrix(-1 -1.224647e-16 1.224647e-16 -1 871.8397 874.1381)" class="st3" width="5.9" height="2.1"/>
	
		<rect x="422.9" y="422" transform="matrix(6.123234e-17 -1 1 6.123234e-17 14.9372 861.0162)" class="st3" width="30.2" height="2.1"/>
	
		<rect x="413.4" y="368.7" transform="matrix(6.123234e-17 -1 1 6.123234e-17 68.3913 808.006)" class="st3" width="49.6" height="2.1"/>
	<rect x="296.2" y="365.2" class="st3" width="141.4" height="4"/>
	<path class="st3" d="M434.8,371.3h-0.3v0H394v0.5h3.3v11.1h-3.4v0.5H423v4.6h0.3v0h11.2v0h0.3V371.3z M400.5,382.9h-2.7v-11.1h2.7
		V382.9z M403.7,382.9H401v-11.1h2.7V382.9z M406.9,382.9h-2.7v-11.1h2.7V382.9z M410.1,382.9h-2.7v-11.1h2.7V382.9z M413.3,382.9
		h-2.7v-11.1h2.7V382.9z M416.5,382.9h-2.7v-11.1h2.7V382.9z M419.8,382.9h-2.7v-11.1h2.7V382.9z M423,382.9h-2.7v-11.1h2.7V382.9z
		 M423.5,371.8h10.7v11.1h-10.7V371.8z M423.5,383.4h10.7v1.7h-10.7V383.4z M423.5,385.7h10.7v1.7h-10.7V385.7z"/>
	<path class="st3" d="M400.3,495h16.9v-0.5h0v-10.7h0v-0.5h0v-29.1h0v-0.2H405v0.5h0v28.8h-4.7v0.3h0v11.2h0V495z M400.8,483.7h1.7
		v10.7h-1.7V483.7z M405,483.7v10.7h-1.9v-10.7H405z M416.7,461.2v2.7h-11.1v-2.7H416.7z M405.6,460.6V458h11.1v2.7H405.6z
		 M416.7,464.4v2.7h-11.1v-2.7H416.7z M416.7,467.6v2.7h-11.1v-2.7H416.7z M416.7,470.8v2.7h-11.1v-2.7H416.7z M416.7,474v2.7h-11.1
		V474H416.7z M416.7,477.3v2.7h-11.1v-2.7H416.7z M405.6,454.4h11.1v3h-11.1V454.4z M416.7,483.2h-11.1v-2.7h11.1V483.2z
		 M416.7,494.4h-11.1v-10.7h11.1V494.4z"/>
	<polyline class="st2" points="301.7,494.5 393.9,494.5 393.9,371.6 301.7,371.6 301.7,494.5 	"/>
	
		<rect x="427.3" y="483.6" transform="matrix(-1 -1.224647e-16 1.224647e-16 -1 862.1328 969.3328)" class="st3" width="7.6" height="2.1"/>
	
		<rect x="413.9" y="305.6" transform="matrix(6.123234e-17 -1 1 6.123234e-17 131.5255 744.4802)" class="st3" width="48.3" height="1.8"/>
	<path class="st3" d="M434.5,346.3L434.5,346.3l-11.2,0v0H423v4.7h-28.8v0h-0.5v12.2h0.2v0H423v0h0.5v0h10.7v0h0.5v-16.9H434.5z
		 M434.2,346.8v1.7h-10.7v-1.7H434.2z M423.5,349.1h10.7v1.9h-10.7V349.1z M401,351.6h2.7v11.1H401V351.6z M400.4,362.6h-2.7v-11.1
		h2.7V362.6z M404.2,351.6h2.7v11.1h-2.7V351.6z M407.4,351.6h2.7v11.1h-2.7V351.6z M410.6,351.6h2.7v11.1h-2.7V351.6z M413.8,351.6
		h2.7v11.1h-2.7V351.6z M417,351.6h2.7v11.1H417V351.6z M397.2,351.6v11.1h-3v-11.1H397.2z M420.3,362.6v-11.1h2.7v11.1H420.3z
		 M423.5,362.6v-11.1h10.7v11.1H423.5z"/>
	<polyline class="st2" points="301.7,363 393.9,363 393.9,237.3 301.7,237.3 301.7,363 	"/>
	
		<rect x="431.9" y="276.6" transform="matrix(6.123234e-17 -1 1 6.123234e-17 157.5879 715.5607)" class="st3" width="9.3" height="4.7"/>
	<rect x="400.4" y="278.9" class="st3" width="38.5" height="4.7"/>
	
		<rect x="388.3" y="266.8" transform="matrix(6.123234e-17 -1 1 6.123234e-17 133.6545 671.961)" class="st3" width="28.9" height="4.7"/>
	<rect x="401.5" y="254.7" class="st3" width="37.6" height="4.6"/>
	
		<rect x="432.3" y="256.9" transform="matrix(6.123234e-17 -1 1 6.123234e-17 177.6111 696.0516)" class="st3" width="9.1" height="4.6"/>
	
		<rect x="134.9" y="688.4" transform="matrix(6.123234e-17 -1 1 6.123234e-17 -124.8705 1255.8295)" class="st3" width="861.1" height="4"/>
	
		<rect x="258.2" y="1079.5" transform="matrix(6.123234e-17 -1 1 6.123234e-17 -783.6921 1379.2919)" class="st3" width="79.3" height="4"/>
	<rect x="295.8" y="1117.3" class="st3" width="140.7" height="4"/>
	<rect x="451.6" y="1116.9" class="st3" width="115.9" height="4"/>
	
		<rect x="434.2" y="234.1" transform="matrix(-1.836970e-16 1 -1 -1.836970e-16 675.4891 -203.1906)" class="st3" width="10.3" height="4.1"/>
	<path class="st3" d="M434.8,635.3h-0.3v0H394v0.5h3.3v11.1h-3.4v0.5H423v4.6h0.3v0h11.2v0h0.3V635.3z M400.5,646.9h-2.7v-11.1h2.7
		V646.9z M403.7,646.9H401v-11.1h2.7V646.9z M406.9,646.9h-2.7v-11.1h2.7V646.9z M410.1,646.9h-2.7v-11.1h2.7V646.9z M413.3,646.9
		h-2.7v-11.1h2.7V646.9z M416.5,646.9h-2.7v-11.1h2.7V646.9z M419.8,646.9h-2.7v-11.1h2.7V646.9z M423,646.9h-2.7v-11.1h2.7V646.9z
		 M423.5,635.8h10.7v11.1h-10.7V635.8z M423.5,647.4h10.7v1.7h-10.7V647.4z M423.5,649.7h10.7v1.7h-10.7V649.7z"/>
	<polyline class="st2" points="301.7,774.5 393.9,774.5 393.9,635.6 301.7,635.6 301.7,774.5 	"/>
	<rect x="296.4" y="845.6" class="st3" width="142.6" height="4"/>
	<polyline class="st2" points="529.8,300.5 565.5,300.5 565.5,240.9 529.8,240.9 529.8,300.5 	"/>
	<path class="st3" d="M498.5,257.8v27h31.6v-27H498.5z M505.7,258.3h2.9v26h-2.9V258.3z M505.2,284.2h-2.9v-26h2.9V284.2z
		 M509.2,258.3h2.9v26h-2.9V258.3z M512.6,258.3h2.9v26h-2.9V258.3z M516.1,258.3h2.9v26h-2.9V258.3z M519.6,258.3h2.9v26h-2.9
		V258.3z M523,258.3h2.9v26H523V258.3z M499,258.3h2.7v26H499V258.3z M529.5,284.2h-3.1v-26h3.1V284.2z"/>
	<polyline class="st2" points="337.2,1043 297.8,1043 297.8,1118.5 337.2,1118.5 337.2,1043 	"/>
	<path class="st3" d="M368.6,1093.1v-27h-31.6v27H368.6z M361.3,1092.5h-2.9v-26h2.9V1092.5z M361.8,1066.6h2.9v26h-2.9V1066.6z
		 M357.8,1092.5h-2.9v-26h2.9V1092.5z M354.4,1092.5h-2.9v-26h2.9V1092.5z M350.9,1092.5H348v-26h2.9V1092.5z M347.5,1092.5h-2.9
		v-26h2.9V1092.5z M344,1092.5h-2.9v-26h2.9V1092.5z M368,1092.5h-2.7v-26h2.7V1092.5z M337.5,1066.6h3.1v26h-3.1V1066.6z"/>
	<rect x="407.4" y="262" class="st4" width="25" height="14.9"/>
	<text transform="matrix(1 0 0 1 337.7205 303.9492)" class="st5 st6">108</text>
	<text transform="matrix(1 0 0 1 337.7205 437.0693)" class="st5 st6">107</text>
	<text transform="matrix(1 0 0 1 337.721 567.1782)" class="st5 st6">106</text>
	<text transform="matrix(1 0 0 1 337.7205 706.4897)" class="st5 st6">105</text>
	<path class="st3" d="M400.7,774h16.9v-0.5h0v-10.7h0v-0.5h0v-29.1h0V733h-12.2v0.5h0v28.8h-4.7v0.3h0v11.2h0V774z M401.2,762.8h1.7
		v10.7h-1.7V762.8z M405.4,762.8v10.7h-1.9v-10.7H405.4z M417.1,740.3v2.7H406v-2.7H417.1z M406,739.7V737h11.1v2.7H406z
		 M417.1,743.5v2.7H406v-2.7H417.1z M417.1,746.7v2.7H406v-2.7H417.1z M417.1,749.9v2.7H406v-2.7H417.1z M417.1,753.1v2.7H406v-2.7
		H417.1z M417.1,756.3v2.7H406v-2.7H417.1z M406,733.5h11.1v3H406V733.5z M417.1,762.3H406v-2.7h11.1V762.3z M417.1,773.5H406v-10.7
		h11.1V773.5z"/>
	<path d="M349.1,870.4c0.4,0.2,0.8,0.4,1.1,0.7c-0.7,1.2-1.4,2.4-2.1,3.6c-0.4-0.2-0.8-0.4-1.1-0.7
		C347.7,872.8,348.4,871.6,349.1,870.4z"/>
	<path d="M347.6,871.1c-0.7,1.2-1.4,2.4-2.1,3.6c-0.4-0.2-0.8-0.4-1.1-0.7c0.7-1.2,1.4-2.4,2.1-3.6
		C346.9,870.7,347.3,870.9,347.6,871.1z"/>
	<path d="M350.8,874.7c-0.4-0.2-0.8-0.4-1.1-0.7c0.7-1.2,1.4-2.4,2.1-3.6c0.4,0.2,0.8,0.4,1.1,0.7
		C352.2,872.3,351.5,873.5,350.8,874.7z"/>
	<path d="M355.4,877.1c-0.6,0-1.1,0-1.7,0v0H348v0c-2.3,0-4.7,0-7,0c0,0-0.1,0-0.1,0c0,0,0,0.1,0,0.1c0,1,0,2.1,0,3.1
		c0,0.2,0,0.5,0,0.7c0.3,2,1.2,3.7,2.8,4.9c0,0,0.1,0.1,0.1,0.1c-0.5,0-0.9,0-1.4,0c-0.4,0-0.8,0.1-1.2,0c0,0,0,0,0,0
		c0,0.4,0,0.9,0,1.3c4.6,0,9.1,0,13.6,0c0-0.4,0-0.9,0-1.3c-0.9,0-1.7,0-2.6,0c0,0,0,0,0-0.1c0,0,0,0,0,0c1.2-0.9,2-2,2.5-3.4
		c0.1-0.3,0.1-0.3,0.5-0.4c1.3,0,2.3-0.9,2.5-2.1C358.2,878.6,357,877.1,355.4,877.1z M354,879.2c0,0.6,0,1.3-0.1,1.9
		c-0.2,1.7-1.1,3.1-2.5,4c-1.7,1.2-3.6,1.4-5.5,0.6c-2.2-0.9-3.5-2.7-3.7-5.1c-0.1-0.7,0-1.4,0-2.1c0,0,0,0,0-0.1c0.1,0,0.1,0,0.1,0
		c2.4,0,4.9,0,7.3,0c0,0,0,0,0,0c0,0,0,0,0.1,0h1c1,0,1.9,0,2.9,0c0.1,0,0.2,0,0.3,0C354,878.7,354,878.9,354,879.2z M356.4,880.4
		c-0.2,0.4-0.6,0.6-1.1,0.6c0-0.8,0-1.7,0-2.5c0.5,0,0.8,0.2,1.1,0.6C356.7,879.5,356.7,879.9,356.4,880.4z"/>
	<text transform="matrix(1 0 0 1 337.931 813.1235)" class="st5 st6">104</text>
	<circle class="st7" cx="517.5" cy="1084.3" r="2.2"/>
	<path d="M518.2,1057.2h-1.5l-4,7.7h9.6L518.2,1057.2z M517.5,1058.6l2.7,5.2h-5.4L517.5,1058.6z"/>
	<circle class="st7" cx="517.5" cy="1055.2" r="2.2"/>
	<path d="M516.8,1095.6h1.4l4-8.8h-9.4L516.8,1095.6z M517.5,1094.1l-2.7-5.9h5.3L517.5,1094.1z"/>
	<circle class="st7" cx="530" cy="346.8" r="2.2"/>
	<path d="M530.9,316.5h-1.5l-4,7.7h9.6L530.9,316.5z M530.2,317.9l2.7,5.2h-5.4L530.2,317.9z"/>
	<circle class="st7" cx="530.3" cy="314.5" r="2.2"/>
	<path d="M529.2,358.2h1.4l4-8.8h-9.4L529.2,358.2z M529.9,356.7l-2.7-5.9h5.3L529.9,356.7z"/>
	<path class="st3" d="M490.8,698.8h-16.9v0.5h0v9.8h0v0.5h0v26.7h0v0.2H486V736h0v-26.4h4.7v-0.2h0v-10.3h0V698.8z M490.2,709.1
		h-1.7v-9.8h1.7V709.1z M486,709.1v-9.8h1.9v9.8H486z M474.4,729.8v-2.5h11.1v2.5H474.4z M485.5,730.3v2.5h-11.1v-2.5H485.5z
		 M474.4,726.8v-2.4h11.1v2.4H474.4z M474.4,723.9v-2.5h11.1v2.5H474.4z M474.4,721v-2.5h11.1v2.5H474.4z M474.4,718v-2.5h11.1v2.5
		H474.4z M474.4,715.1v-2.5h11.1v2.5H474.4z M485.5,736h-11.1v-2.8h11.1V736z M474.4,709.6h11.1v2.5h-11.1V709.6z M474.4,699.3h11.1
		v9.8h-11.1V699.3z"/>
	<path class="st3" d="M491.1,845.9L491.1,845.9l0-10.7h0V835h-4.7v-27.3h0v-0.5h-12.2v0.2h0V835h0v0.5h0v10.2h0v0.5h16.9V845.9z
		 M490.6,845.6h-1.7v-10.2h1.7V845.6z M488.3,835.5v10.2h-1.9v-10.2H488.3z M485.9,814.1v2.5h-11.1v-2.5H485.9z M474.8,813.6V811
		h11.1v2.5H474.8z M485.9,817.1v2.5h-11.1v-2.5H485.9z M485.9,820.2v2.5h-11.1v-2.5H485.9z M485.9,823.2v2.5h-11.1v-2.5H485.9z
		 M485.9,826.3v2.5h-11.1v-2.5H485.9z M485.9,829.3v2.6h-11.1v-2.6H485.9z M485.9,810.5h-11.1v-2.9h11.1V810.5z M474.8,832.4h11.1
		v2.5h-11.1V832.4z M474.8,835.5h11.1v10.2h-11.1V835.5z"/>
	<polyline class="st2" points="498.2,845.6 561.1,845.6 561.1,698.8 498.2,698.8 498.2,845.6 	"/>
	<text transform="matrix(1 0 0 1 501.632 618.1342)" class="st5 st8">склад</text>
	<text transform="matrix(1 0 0 1 514.408 776.8702)" class="st5 st6">120</text>
	<text transform="matrix(1 0 0 1 504.4646 536.2326)" class="st5 st6">118</text>
	<text transform="matrix(1 0 0 1 504.4645 470.5699)" class="st5 st6">117</text>
	<text transform="matrix(1 0 0 1 504.4643 405.9841)" class="st5 st6">116</text>
</g>
<g id="Layer_2">
	
		<rect x="464.8" y="307.2" transform="matrix(6.123234e-17 -1 1 6.123234e-17 162.5661 778.906)" class="st3" width="11.9" height="1.8"/>
	
		<rect x="453.4" y="374.5" transform="matrix(6.123234e-17 -1 1 6.123234e-17 95.4771 846.2826)" class="st3" width="35" height="1.8"/>
	
		<rect x="443" y="430.7" transform="matrix(6.123234e-17 -1 1 6.123234e-17 39.241 902.4922)" class="st3" width="55.8" height="1.8"/>
	
		<rect x="469.8" y="356" transform="matrix(0.7482 -0.6635 0.6635 0.7482 -117.8111 403.4504)" class="st3" width="5.6" height="1.8"/>
	
		<rect x="481.1" y="347.4" transform="matrix(0.7482 -0.6635 0.6635 0.7482 -109.3711 408.5646)" class="st3" width="4.9" height="1.8"/>
	
		<rect x="469.8" y="314.2" transform="matrix(0.78 0.6258 -0.6258 0.78 301.2036 -226.3889)" class="st3" width="5.6" height="1.8"/>
	
		<rect x="484.4" y="335.5" transform="matrix(-1 -1.224647e-16 1.224647e-16 -1 1031.9946 672.8197)" class="st3" width="63.2" height="1.8"/>
	
		<rect x="494.8" y="335.1" transform="matrix(6.123234e-17 -1 1 6.123234e-17 179.9252 852.0695)" class="st3" width="42.3" height="1.8"/>
	<rect x="470" y="366.1" class="st3" width="97.5" height="4"/>
	
		<rect x="420.4" y="586.9" transform="matrix(6.123234e-17 -1 1 6.123234e-17 -116.826 1058.7706)" class="st3" width="101.1" height="1.8"/>
	
		<rect x="427" y="692.1" transform="matrix(6.123234e-17 -1 1 6.123234e-17 -222.2815 1163.8176)" class="st3" width="87.6" height="1.8"/>
	
		<rect x="446.9" y="770.5" transform="matrix(6.123234e-17 -1 1 6.123234e-17 -300.6296 1242.1656)" class="st3" width="47.8" height="1.8"/>
	
		<rect x="450.2" y="827.4" transform="matrix(6.123234e-17 -1 1 6.123234e-17 -357.301 1299.3762)" class="st3" width="41.7" height="1.8"/>
	
		<rect x="462.1" y="847.6" transform="matrix(-1 -1.224647e-16 1.224647e-16 -1 1026.1289 1697.0446)" class="st3" width="102" height="1.8"/>
	<path class="st3" d="M516.7,927.2c-1.2,20.3-15.7,39.9-35.6,47.5c-2.3,0.9-4.6,1.6-6.9,2.1l-0.5-1.9c2.2-0.5,4.4-1.2,6.6-2
		c19.1-7.3,32.6-24.6,34.5-45.7H516.7z"/>
	
		<rect x="468" y="854.1" transform="matrix(6.123234e-17 -1 1 6.123234e-17 -379.8603 1330.1815)" class="st3" width="14.4" height="1.8"/>
	
		<rect x="493.2" y="904.9" transform="matrix(6.123234e-17 -1 1 6.123234e-17 -390.0595 1421.611)" class="st3" width="45.1" height="1.8"/>
	<path class="st3" d="M438,849.4c-17.1,4.1-28.5,12.3-36,21.9l-1.7-1c7.8-10.2,19.7-18.9,37.4-22.9L438,849.4z"/>
	<path class="st3" d="M388.8,916.2h-2.1c-0.4-8.8,0.9-21,6-32.8l1.7,0.9C389.3,896.2,388.4,908.2,388.8,916.2z"/>
	
		<rect x="421.8" y="832.3" transform="matrix(6.123234e-17 -1 1 6.123234e-17 -395.2506 1271.2295)" class="st3" width="32.4" height="1.8"/>
	
		<rect x="437.4" y="847.8" transform="matrix(-1 -1.224647e-16 1.224647e-16 -1 885.2534 1697.3508)" class="st3" width="10.4" height="1.8"/>
	
		<rect x="446.4" y="1000.5" transform="matrix(6.123234e-17 -1 1 6.123234e-17 -528.5389 1474.4022)" class="st3" width="53.1" height="1.8"/>
	
		<rect x="468.8" y="1041.5" transform="matrix(6.123234e-17 -1 1 6.123234e-17 -569.7388 1515.0797)" class="st3" width="7.8" height="1.8"/>
	
		<rect x="390.1" y="1079.2" transform="matrix(6.123234e-17 -1 1 6.123234e-17 -652.751 1507.5688)" class="st3" width="74.6" height="1.8"/>
	
		<rect x="296.4" y="1041.8" transform="matrix(-1 -1.224647e-16 1.224647e-16 -1 696.3801 2085.3928)" class="st3" width="103.6" height="1.8"/>
	
		<rect x="414.3" y="1041.8" transform="matrix(-1 -1.224647e-16 1.224647e-16 -1 842.6127 2085.3928)" class="st3" width="14.1" height="1.8"/>
	
		<rect x="471.7" y="1041.8" transform="matrix(-1 -1.224647e-16 1.224647e-16 -1 1038.5051 2085.5234)" class="st3" width="95.1" height="1.8"/>
	
		<rect x="494.5" y="1080.4" transform="matrix(6.123234e-17 -1 1 6.123234e-17 -548.2961 1614.4486)" class="st3" width="77.2" height="1.8"/>
	
		<rect x="460.6" y="1073.3" transform="matrix(-1 -1.224647e-16 1.224647e-16 -1 994.6661 2148.4846)" class="st3" width="73.5" height="1.8"/>
	
		<rect x="482.7" y="1072.9" transform="matrix(6.123234e-17 -1 1 6.123234e-17 -571.3521 1576.3885)" class="st3" width="39.5" height="1.8"/>
	
		<rect x="463.3" y="1064.7" transform="matrix(6.123234e-17 -1 1 6.123234e-17 -592.8626 1538.3341)" class="st3" width="18.9" height="1.8"/>
	
		<rect x="446.5" y="1102.4" transform="matrix(6.123234e-17 -1 1 6.123234e-17 -641.9721 1564.5986)" class="st3" width="29.7" height="1.8"/>
	
		<rect x="459" y="1074.8" transform="matrix(6.123234e-17 -1 1 6.123234e-17 -614.2856 1537.1591)" class="st3" width="4.8" height="1.8"/>
	
		<rect x="426.5" y="1091.5" transform="matrix(-1 -1.224647e-16 1.224647e-16 -1 888.8245 2184.7983)" class="st3" width="35.7" height="1.8"/>
	
		<rect x="460.7" y="1105.6" transform="matrix(-1 -1.224647e-16 1.224647e-16 -1 932.6271 2213.0134)" class="st3" width="11.1" height="1.8"/>
	
		<rect x="480.4" y="1105.5" transform="matrix(-1 -1.224647e-16 1.224647e-16 -1 1014.4289 2212.7847)" class="st3" width="53.7" height="1.8"/>
	
		<rect x="415.4" y="779.6" transform="matrix(6.123234e-17 -1 1 6.123234e-17 -342.4971 1218.4761)" class="st3" width="45.3" height="1.8"/>
	
		<rect x="358.9" y="916.1" transform="matrix(6.123234e-17 -1 1 6.123234e-17 -553.3091 1280.7675)" class="st3" width="9.6" height="1.8"/>
	
		<rect x="355.9" y="937.9" transform="matrix(6.123234e-17 -1 1 6.123234e-17 -575.1791 1302.507)" class="st3" width="15.6" height="1.8"/>
	
		<rect x="325.9" y="948.3" transform="matrix(6.123234e-17 -1 1 6.123234e-17 -619.3663 1279.0303)" class="st3" width="7.9" height="1.8"/>
	<rect x="328.9" y="944.7" class="st3" width="35.3" height="1.8"/>
	
		<rect x="301.8" y="990.4" transform="matrix(6.123234e-17 -1 1 6.123234e-17 -661.5944 1320.9972)" class="st3" width="55.9" height="1.8"/>
	
		<rect x="296.3" y="981.5" transform="matrix(-1 -1.224647e-16 1.224647e-16 -1 626.9485 1964.8092)" class="st3" width="34.3" height="1.8"/>
	
		<rect x="470" y="695.2" transform="matrix(-1 -1.224647e-16 1.224647e-16 -1 1037.3009 1392.2966)" class="st3" width="97.3" height="1.8"/>
	
		<rect x="469.8" y="662.3" transform="matrix(-1 -1.224647e-16 1.224647e-16 -1 1036.8585 1326.3474)" class="st3" width="97.2" height="1.8"/>
	
		<rect x="470.4" y="564.1" transform="matrix(-1 -1.224647e-16 1.224647e-16 -1 1037.9176 1130.0015)" class="st3" width="97" height="1.8"/>
	
		<rect x="537.8" y="230.1" transform="matrix(-1.836970e-16 1 -1 -1.836970e-16 797.5505 -333.4085)" class="st3" width="55.4" height="4"/>
	<rect x="470.4" y="239.9" class="st3" width="96.2" height="1.8"/>
	<rect x="437.6" y="240.1" class="st3" width="22.2" height="1.8"/>
	
		<rect x="492.7" y="211.8" transform="matrix(-1.836970e-16 1 -1 -1.836970e-16 711.138 -285.6692)" class="st3" width="11.5" height="1.8"/>
	
		<rect x="492.3" y="234.8" transform="matrix(-1.836970e-16 1 -1 -1.836970e-16 733.8378 -262.3163)" class="st3" width="11.5" height="1.8"/>
	
		<rect x="473.4" y="335" transform="matrix(6.123234e-17 -1 1 6.123234e-17 149.101 820.928)" class="st3" width="23.3" height="1.8"/>
	
		<rect x="480.6" y="322.4" transform="matrix(0.78 0.6258 -0.6258 0.78 308.6786 -231.3046)" class="st3" width="5.3" height="1.8"/>
	<rect x="437.2" y="300" class="st3" width="16.3" height="4"/>
	<rect x="467.7" y="300" class="st3" width="99.1" height="4"/>
	
		<rect x="519.2" y="338.8" transform="matrix(-1.836970e-16 1 -1 -1.836970e-16 886.463 -206.9349)" class="st3" width="54.9" height="1.8"/>
	
		<rect x="291.1" y="1013" transform="matrix(6.123234e-17 -1 1 6.123234e-17 -716.6713 1311.197)" class="st3" width="12.3" height="1.8"/>
	
		<rect x="291.1" y="1039.6" transform="matrix(6.123234e-17 -1 1 6.123234e-17 -743.583 1337.412)" class="st3" width="11.7" height="1.8"/>
	
		<rect x="429.8" y="206.9" transform="matrix(-1.836970e-16 1 -1 -1.836970e-16 641.135 -225.439)" class="st3" width="6.9" height="1.8"/>
	
		<rect x="429.1" y="229.3" transform="matrix(-1.836970e-16 1 -1 -1.836970e-16 663.4773 -203.0967)" class="st3" width="8.5" height="1.8"/>
	
		<rect x="456.9" y="222.7" transform="matrix(-1.836970e-16 1 -1 -1.836970e-16 698.6835 -251.3681)" class="st3" width="36.2" height="1.8"/>
	
		<rect x="426.6" y="243.9" transform="matrix(-1.836970e-16 1 -1 -1.836970e-16 683.0322 -193.3654)" class="st3" width="23.1" height="1.8"/>
	<line class="st11" x1="407.7" y1="262.4" x2="431.9" y2="276.5"/>
	<line class="st11" x1="407.5" y1="276.8" x2="432.2" y2="262.3"/>
	
		<rect x="474.5" y="861" transform="matrix(-1.836970e-16 1 -1 -1.836970e-16 1355.5333 381.4273)" class="st4" width="25" height="14.9"/>
	<line class="st11" x1="494.1" y1="856.8" x2="480" y2="881"/>
	<line class="st11" x1="479.7" y1="856.6" x2="494.2" y2="881.2"/>
	
		<rect x="494.4" y="865.4" transform="matrix(-1.836970e-16 1 -1 -1.836970e-16 1375.7285 367.775)" class="st4" width="19.2" height="12.7"/>
	<line class="st11" x1="510.2" y1="862.5" x2="498.2" y2="881"/>
	<line class="st11" x1="498" y1="862.3" x2="510.3" y2="881.2"/>
	
		<rect x="291.3" y="979" transform="matrix(6.123234e-17 -1 1 6.123234e-17 -682.8113 1277.0509)" class="st3" width="11.7" height="1.8"/>
	<rect x="296.9" y="1010.5" class="st3" width="33" height="1.8"/>
	
		<rect x="325.2" y="1038.2" transform="matrix(6.123234e-17 -1 1 6.123234e-17 -709.4375 1368.8403)" class="st3" width="9" height="1.8"/>
	<path class="st3" d="M364.6,945.2c-0.4,15.8-12,30.7-28.9,36.5c-2,0.7-5.3,1.2-7.3,1.6l-0.4-1.5c1.9-0.4,3.7-1,5.6-1.6
		c16.9-5.1,27.7-18.9,29.3-35H364.6z"/>
	
		<rect x="472.7" y="1009.1" transform="matrix(-1 -1.224647e-16 1.224647e-16 -1 1036.7168 2020.0764)" class="st3" width="91.4" height="1.8"/>
	
		<rect x="502.4" y="1016.3" transform="matrix(6.123234e-17 -1 1 6.123234e-17 -507.4314 1527.0931)" class="st3" width="14.9" height="1.8"/>
	
		<rect x="470.4" y="499.3" transform="matrix(-1 -1.224647e-16 1.224647e-16 -1 1037.9176 1000.4244)" class="st3" width="97" height="1.8"/>
	
		<rect x="470.2" y="433.9" transform="matrix(-1 -1.224647e-16 1.224647e-16 -1 1037.3961 869.6747)" class="st3" width="97" height="1.8"/>
	
		<rect x="443" y="496.7" transform="matrix(6.123234e-17 -1 1 6.123234e-17 -26.7969 968.5303)" class="st3" width="55.8" height="1.8"/>
</g>
</svg>
