<?xml version="1.0" encoding="utf-8"?>
<!-- Generator: Adobe Illustrator 24.0.1, SVG Export Plug-In . SVG Version: 6.00 Build 0)  -->
<svg version="1.1" xmlns="http://www.w3.org/2000/svg" xmlns:xlink="http://www.w3.org/1999/xlink" x="0px" y="0px"
	 viewBox="0 0 842 1191" style="enable-background:new 0 0 842 1191;" xml:space="preserve">
<style type="text/css">
	.st0{fill:#E3E4E5;}
	.st1{fill:none;stroke:#000000;stroke-width:0.12;stroke-linecap:round;stroke-linejoin:round;stroke-miterlimit:10;}
	.st2{fill:none;stroke:#939393;stroke-width:0.5;stroke-miterlimit:10;}
	.st3{fill:#939393;}
	.st4{fill:none;stroke:#939393;stroke-width:0.75;stroke-miterlimit:10;}
	.st5{fill:none;stroke:#000000;stroke-width:1.5;stroke-miterlimit:10;}
	.st6{fill:none;stroke:#939393;stroke-width:2;stroke-miterlimit:10;}
	.st7{fill:#7A8487;}
	.st8{fill:#939393;stroke:#939393;stroke-width:0.5;stroke-miterlimit:10;}
	.st9{fill:#FFFFFF;}
	.st10{font-family:'Roboto-Black';}
	.st11{font-size:25px;}
	.st12{fill:none;stroke:#7A8487;stroke-miterlimit:10;}
</style>
<g id="Layer_3">
</g>
<g id="Layer_1">
</g>
<g id="Layer_2">
	<line class="st1" x1="717.6" y1="309.8" x2="717.6" y2="310.3"/>
	<line class="st1" x1="145" y1="309.8" x2="145" y2="310.9"/>
	<line class="st1" x1="709.5" y1="918.4" x2="708.4" y2="919"/>
	<line class="st1" x1="709.5" y1="915" x2="705.5" y2="919"/>
	<line class="st1" x1="709.5" y1="912.7" x2="702.1" y2="919"/>
	<line class="st1" x1="705.5" y1="912.7" x2="698.7" y2="919"/>
	<line class="st1" x1="702.1" y1="912.7" x2="694.7" y2="919"/>
	<line class="st1" x1="698.7" y1="912.7" x2="691.8" y2="919"/>
	<line class="st1" x1="695.8" y1="912.7" x2="688.4" y2="919"/>
	<line class="st1" x1="692.4" y1="912.7" x2="685" y2="919"/>
	<line class="st1" x1="688.4" y1="912.7" x2="681.5" y2="919"/>
	<line class="st1" x1="685" y1="912.7" x2="677.5" y2="919"/>
	<line class="st1" x1="681.5" y1="912.7" x2="675.2" y2="919"/>
	<line class="st1" x1="678.7" y1="912.7" x2="671.8" y2="919"/>
	<line class="st1" x1="675.2" y1="912.7" x2="667.8" y2="919"/>
	<line class="st1" x1="671.8" y1="912.7" x2="664.9" y2="919"/>
	<line class="st1" x1="668.9" y1="912.7" x2="661.5" y2="919"/>
	<line class="st1" x1="665.5" y1="912.7" x2="658.1" y2="919"/>
	<line class="st1" x1="661.5" y1="912.7" x2="654.6" y2="919"/>
	<line class="st1" x1="658.1" y1="912.7" x2="650.6" y2="919"/>
	<line class="st1" x1="654.6" y1="912.7" x2="647.8" y2="919"/>
	<line class="st1" x1="651.8" y1="912.7" x2="644.3" y2="919"/>
	<line class="st1" x1="648.3" y1="912.7" x2="640.9" y2="919"/>
	<line class="st1" x1="644.3" y1="912.7" x2="638" y2="919"/>
	<line class="st1" x1="642" y1="912.7" x2="633.5" y2="919"/>
	<line class="st1" x1="638" y1="912.7" x2="631.2" y2="919"/>
	<line class="st1" x1="634.6" y1="912.7" x2="627.7" y2="919"/>
	<rect x="136.8" y="294.6" class="st3" width="595.8" height="17.4"/>
	<path class="st3" d="M706.6,903.2V902h0.1V724.5h-2.4v14.3h-48.5v-14.7h-2.4v127.5h-20v1.2h0V902h0v1.2H706.6z M655.8,752.9v-11.7
		h48.5v11.7H655.8z M655.8,767v-11.7h48.5V767H655.8z M655.8,781v-11.6h48.5V781H655.8z M655.8,795.1v-11.7h48.5v11.7H655.8z
		 M655.8,809.2v-11.7h48.5v11.7H655.8z M655.8,823.3v-11.7h48.5v11.7H655.8z M655.8,837.5v-11.8h48.5v11.8H655.8z M655.8,851.6
		v-11.7h48.5v11.7H655.8z M704.4,854v46.8h-48.5V854H704.4z M653.4,854v46.8h-7.6V854H653.4z M643.4,854v46.8h-7.6V854H643.4z"/>
	
		<rect x="415" y="601.4" transform="matrix(-1.836970e-16 1 -1 -1.836970e-16 1333.9845 -113.7922)" class="st3" width="617.8" height="17.4"/>
	
		<rect x="623.4" y="910.3" transform="matrix(-1 -1.224647e-16 1.224647e-16 -1 1356.0826 1829.9419)" class="st3" width="109.2" height="9.3"/>
	
		<rect x="296.9" y="910.5" transform="matrix(-1 -1.224647e-16 1.224647e-16 -1 858.7526 1829.712)" class="st3" width="264.9" height="8.8"/>
	<path class="st3" d="M240.1,901.8L240.1,901.8l0-49.2h0v-1.2h-20.7V725.5h0v-2.4h-53.3v0.8h0v127.5h0v2.4h0v46.8h0v2.4h74V901.8z
		 M237.8,900.7h-7.6v-46.8h7.6V900.7z M227.8,853.8v46.8h-8.3v-46.8H227.8z M217.1,755.1v11.7h-48.5v-11.7H217.1z M168.6,752.8
		v-11.7h48.5v11.7H168.6z M217.1,769.2v11.6h-48.5v-11.6H217.1z M217.1,783.3V795h-48.5v-11.7H217.1z M217.1,797.4v11.7h-48.5v-11.7
		H217.1z M217.1,811.4v11.7h-48.5v-11.7H217.1z M217.1,825.5v11.8h-48.5v-11.8H217.1z M217.1,738.7h-48.5v-13.2h48.5V738.7z
		 M168.6,839.8h48.5v11.7h-48.5V839.8z M168.6,853.8h48.5v46.8h-48.5V853.8z"/>
	
		<rect x="-163.3" y="599.7" transform="matrix(-1.836970e-16 1 -1 -1.836970e-16 753.9169 462.844)" class="st3" width="617.8" height="17.4"/>
	
		<rect x="136.8" y="909.9" transform="matrix(-1 -1.224647e-16 1.224647e-16 -1 383.3759 1828.8625)" class="st3" width="109.7" height="9.1"/>
	<rect x="194.2" y="615.1" class="st7" width="36.6" height="63.8"/>
	<rect x="192.9" y="481.4" class="st7" width="36.6" height="63.8"/>
	<circle class="st7" cx="178.6" cy="513.3" r="8.8"/>
	<rect x="193.2" y="353" class="st7" width="36.6" height="63.8"/>
	<circle class="st7" cx="178.9" cy="384.9" r="8.8"/>
	
		<rect x="321.6" y="353" transform="matrix(-1 -1.224647e-16 1.224647e-16 -1 679.7218 769.8366)" class="st7" width="36.6" height="63.8"/>
	<circle class="st7" cx="372.5" cy="384.9" r="8.8"/>
	<text transform="matrix(1 0 0 1 203.4247 520.6862)" class="st9 st10 st11">2</text>
	<text transform="matrix(1 0 0 1 274.572 392.8613)" class="st9 st10 st11">2</text>
	<text transform="matrix(1 0 0 1 204.4838 393.7321)" class="st9 st10 st11">3</text>
	<text transform="matrix(1 0 0 1 333.1865 393.7321)" class="st9 st10 st11">4</text>
	<text transform="matrix(1 0 0 1 205.4441 654.097)" class="st9 st10 st11">1</text>
	
		<rect x="320.8" y="478.6" transform="matrix(-1 -1.224647e-16 1.224647e-16 -1 678.1671 1021.0976)" class="st7" width="36.6" height="63.8"/>
	<circle class="st7" cx="371.7" cy="510.5" r="8.8"/>
	<text transform="matrix(1 0 0 1 332.4092 519.3626)" class="st9 st10 st11">5</text>
	
		<rect x="321.6" y="612.7" transform="matrix(-1 -1.224647e-16 1.224647e-16 -1 679.7218 1289.1102)" class="st7" width="36.6" height="63.8"/>
	<circle class="st7" cx="372.5" cy="644.6" r="8.8"/>
	<text transform="matrix(1 0 0 1 333.1865 653.369)" class="st9 st10 st11">6</text>
	<circle class="st7" cx="178.6" cy="650" r="8.8"/>
	<rect x="502.5" y="612.5" class="st7" width="36.6" height="63.8"/>
	<rect x="501.2" y="478.7" class="st7" width="36.6" height="63.8"/>
	<circle class="st7" cx="486.9" cy="510.6" r="8.8"/>
	<rect x="501.5" y="349.4" class="st7" width="36.6" height="63.8"/>
	<circle class="st7" cx="487.2" cy="381.3" r="8.8"/>
	
		<rect x="629.9" y="349.4" transform="matrix(-1 -1.224647e-16 1.224647e-16 -1 1296.3409 762.5229)" class="st7" width="36.6" height="63.8"/>
	<circle class="st7" cx="680.8" cy="381.3" r="8.8"/>
	<text transform="matrix(1 0 0 1 513.0936 518.0292)" class="st9 st10 st11">8</text>
	<text transform="matrix(1 0 0 1 582.8815 396.2044)" class="st9 st10 st11">2</text>
	<text transform="matrix(1 0 0 1 513.0941 390.0753)" class="st9 st10 st11">9</text>
	<text transform="matrix(1 0 0 1 633.4961 390.0753)" class="st9 st10 st11">10</text>
	<text transform="matrix(1 0 0 1 513.0935 652.4401)" class="st9 st10 st11">7</text>
	
		<rect x="629.1" y="476" transform="matrix(-1 -1.224647e-16 1.224647e-16 -1 1294.7863 1015.7838)" class="st7" width="36.6" height="63.8"/>
	<circle class="st7" cx="680.1" cy="507.9" r="8.8"/>
	<text transform="matrix(1 0 0 1 632.7188 516.7057)" class="st9 st10 st11">11</text>
	
		<rect x="629.9" y="610" transform="matrix(-1 -1.224647e-16 1.224647e-16 -1 1296.3409 1283.7965)" class="st7" width="36.6" height="63.8"/>
	<circle class="st7" cx="680.8" cy="641.9" r="8.8"/>
	<text transform="matrix(1 0 0 1 633.4961 650.7121)" class="st9 st10 st11">12</text>
	<circle class="st7" cx="486.9" cy="647.4" r="8.8"/>
	<rect x="421" y="330.1" class="st12" width="30" height="78.9"/>
	<rect x="421" y="481.2" class="st12" width="30" height="78.9"/>
	<rect x="421" y="409" class="st12" width="30" height="72.7"/>
	<rect x="421" y="560.2" class="st12" width="30" height="63.4"/>
	<rect x="421" y="623.7" class="st12" width="30" height="78.9"/>
	
		<rect x="420.7" y="678.2" transform="matrix(6.123234e-17 -1 1 6.123234e-17 -281.9733 1153.3622)" class="st12" width="30" height="78.9"/>
	<rect x="421" y="830.9" class="st12" width="30" height="78.9"/>
	<path class="st3" d="M633.1,903.6h74v-2.4h0v-46.8h0V852h0V724.6h0v-0.8h-53.3v2.4h0V852h-20.7v1.2h0v49.2h0V903.6z M635.4,854.4
		h7.6v46.8h-7.6V854.4z M653.8,854.4v46.8h-8.3v-46.8H653.8z M704.7,755.7v11.7h-48.5v-11.7H704.7z M656.2,753.3v-11.7h48.5v11.7
		H656.2z M704.7,769.8v11.6h-48.5v-11.6H704.7z M704.7,783.8v11.7h-48.5v-11.7H704.7z M704.7,797.9v11.7h-48.5v-11.7H704.7z
		 M704.7,812v11.7h-48.5V812H704.7z M704.7,826.1v11.8h-48.5v-11.8H704.7z M656.2,726.1h48.5v13.2h-48.5V726.1z M704.7,852h-48.5
		v-11.7h48.5V852z M704.7,901.2h-48.5v-46.8h48.5V901.2z"/>
</g>
</svg>
