<?xml version="1.0" encoding="utf-8"?>
<!-- Generator: Adobe Illustrator 24.0.1, SVG Export Plug-In . SVG Version: 6.00 Build 0)  -->
<svg version="1.1" xmlns="http://www.w3.org/2000/svg" xmlns:xlink="http://www.w3.org/1999/xlink" x="0px" y="0px"
	 viewBox="0 0 842 1191" style="enable-background:new 0 0 842 1191;" xml:space="preserve">
<style type="text/css">
	.st0{fill:#E3E4E5;}
	.st1{fill:none;stroke:#000000;stroke-width:0.12;stroke-linecap:round;stroke-linejoin:round;stroke-miterlimit:10;}
	.st2{fill:none;stroke:#939393;stroke-width:0.5;stroke-miterlimit:10;}
	.st3{fill:#939393;}
	.st4{fill:none;stroke:#939393;stroke-width:0.75;stroke-miterlimit:10;}
	.st5{fill:none;stroke:#000000;stroke-width:1.5;stroke-miterlimit:10;}
	.st6{fill:none;stroke:#939393;stroke-width:2;stroke-miterlimit:10;}
	.st7{fill:#7A8487;}
	.st8{fill:#FFFFFF;}
	.st9{font-family:'Roboto-Black';}
	.st10{font-size:25px;}
	.st11{fill:#939393;stroke:#939393;stroke-width:0.5;stroke-miterlimit:10;}
	.st12{fill:none;stroke:#7A8487;stroke-miterlimit:10;}
</style>
<g id="Layer_3">
</g>
<g id="Layer_1">
	<line class="st1" x1="717.4" y1="312.3" x2="717.4" y2="312.9"/>
	<line class="st1" x1="144.8" y1="312.3" x2="144.8" y2="313.5"/>
	<line class="st1" x1="709.3" y1="921" x2="708.2" y2="921.5"/>
	<line class="st1" x1="709.3" y1="917.5" x2="705.3" y2="921.5"/>
	<line class="st1" x1="709.3" y1="915.2" x2="701.9" y2="921.5"/>
	<line class="st1" x1="705.3" y1="915.2" x2="698.5" y2="921.5"/>
	<line class="st1" x1="701.9" y1="915.2" x2="694.5" y2="921.5"/>
	<line class="st1" x1="698.5" y1="915.2" x2="691.6" y2="921.5"/>
	<line class="st1" x1="695.6" y1="915.2" x2="688.2" y2="921.5"/>
	<line class="st1" x1="692.2" y1="915.2" x2="684.7" y2="921.5"/>
	<line class="st1" x1="688.2" y1="915.2" x2="681.3" y2="921.5"/>
	<line class="st1" x1="684.7" y1="915.2" x2="677.3" y2="921.5"/>
	<line class="st1" x1="681.3" y1="915.2" x2="675" y2="921.5"/>
	<line class="st1" x1="678.5" y1="915.2" x2="671.6" y2="921.5"/>
	<line class="st1" x1="675" y1="915.2" x2="667.6" y2="921.5"/>
	<line class="st1" x1="671.6" y1="915.2" x2="664.7" y2="921.5"/>
	<line class="st1" x1="668.7" y1="915.2" x2="661.3" y2="921.5"/>
	<line class="st1" x1="665.3" y1="915.2" x2="657.9" y2="921.5"/>
	<line class="st1" x1="661.3" y1="915.2" x2="654.4" y2="921.5"/>
	<line class="st1" x1="657.9" y1="915.2" x2="650.4" y2="921.5"/>
	<line class="st1" x1="654.4" y1="915.2" x2="647.6" y2="921.5"/>
	<line class="st1" x1="651.6" y1="915.2" x2="644.1" y2="921.5"/>
	<line class="st1" x1="648.1" y1="915.2" x2="640.7" y2="921.5"/>
	<line class="st1" x1="644.1" y1="915.2" x2="637.8" y2="921.5"/>
	<line class="st1" x1="641.8" y1="915.2" x2="633.3" y2="921.5"/>
	<line class="st1" x1="637.8" y1="915.2" x2="631" y2="921.5"/>
	<line class="st1" x1="634.4" y1="915.2" x2="627.5" y2="921.5"/>
	<rect x="136.6" y="297.2" class="st3" width="595.8" height="17.4"/>
	<path class="st3" d="M706.4,905.7v-1.2h0.1V727h-2.4v14.3h-48.5v-14.7h-2.4v127.5h-20v1.2h0v49.2h0v1.2H706.4z M655.6,755.5v-11.7
		h48.5v11.7H655.6z M655.6,769.6v-11.7h48.5v11.7H655.6z M655.6,783.6v-11.6h48.5v11.6H655.6z M655.6,797.7V786h48.5v11.7H655.6z
		 M655.6,811.8v-11.7h48.5v11.7H655.6z M655.6,825.9v-11.7h48.5v11.7H655.6z M655.6,840.1v-11.8h48.5v11.8H655.6z M655.6,854.2
		v-11.7h48.5v11.7H655.6z M704.2,856.5v46.8h-48.5v-46.8H704.2z M653.2,856.5v46.8h-7.6v-46.8H653.2z M643.2,856.5v46.8h-7.6v-46.8
		H643.2z"/>
	
		<rect x="414.8" y="603.9" transform="matrix(-1.836970e-16 1 -1 -1.836970e-16 1336.3391 -111.032)" class="st3" width="617.8" height="17.4"/>
	
		<rect x="623.2" y="912.9" transform="matrix(-1 -1.224647e-16 1.224647e-16 -1 1355.677 1835.0566)" class="st3" width="109.2" height="9.3"/>
	
		<rect x="296.7" y="913" transform="matrix(-1 -1.224647e-16 1.224647e-16 -1 858.3469 1834.8269)" class="st3" width="264.9" height="8.8"/>
	<path class="st3" d="M239.9,904.4L239.9,904.4l0-49.2h0V854h-20.7V728.1h0v-2.4H166v0.8h0V854h0v2.4h0v46.8h0v2.4h74V904.4z
		 M237.6,903.2H230v-46.8h7.6V903.2z M227.6,856.4v46.8h-8.3v-46.8H227.6z M216.9,757.7v11.7h-48.5v-11.7H216.9z M168.3,755.3v-11.7
		h48.5v11.7H168.3z M216.9,771.8v11.6h-48.5v-11.6H216.9z M216.9,785.8v11.7h-48.5v-11.7H216.9z M216.9,799.9v11.7h-48.5v-11.7
		H216.9z M216.9,814v11.7h-48.5V814H216.9z M216.9,828.1v11.8h-48.5v-11.8H216.9z M216.9,741.2h-48.5v-13.2h48.5V741.2z
		 M168.3,842.3h48.5V854h-48.5V842.3z M168.3,856.4h48.5v46.8h-48.5V856.4z"/>
	
		<rect x="-163.5" y="602.2" transform="matrix(-1.836970e-16 1 -1 -1.836970e-16 756.2715 465.6042)" class="st3" width="617.8" height="17.4"/>
	
		<rect x="136.6" y="912.4" transform="matrix(-1 -1.224647e-16 1.224647e-16 -1 382.9702 1833.9773)" class="st3" width="109.7" height="9.1"/>
	<polyline class="st6" points="167,323.1 167,726.6 705.3,726.6 705.3,323.1 167,323.1 	"/>
	<rect x="254" y="647.7" class="st7" width="36.6" height="63.8"/>
	
		<rect x="374.3" y="636.6" transform="matrix(6.123234e-17 -1 1 6.123234e-17 -275.957 1061.1223)" class="st7" width="36.6" height="63.8"/>
	
		<rect x="471" y="636.6" transform="matrix(6.123234e-17 -1 1 6.123234e-17 -179.2484 1157.8311)" class="st7" width="36.6" height="63.8"/>
	<circle class="st7" cx="392.2" cy="700.2" r="8.8"/>
	<circle class="st7" cx="489.3" cy="700.2" r="8.8"/>
	
		<rect x="567.7" y="636.4" transform="matrix(6.123234e-17 -1 1 6.123234e-17 -82.3468 1254.3468)" class="st7" width="36.6" height="63.8"/>
	<circle class="st7" cx="586" cy="700" r="8.8"/>
	<circle class="st7" cx="239.6" cy="680.6" r="8.8"/>
	<rect x="225.1" y="356.1" class="st7" width="36.6" height="63.8"/>
	<circle class="st7" cx="210.8" cy="388" r="8.8"/>
	
		<rect x="263.5" y="356.1" transform="matrix(-1 -1.224647e-16 1.224647e-16 -1 563.5414 776.04)" class="st7" width="36.6" height="63.8"/>
	<circle class="st7" cx="314.4" cy="388" r="8.8"/>
	<rect x="403" y="355.6" class="st7" width="36.6" height="63.8"/>
	<circle class="st7" cx="388.7" cy="387.5" r="8.8"/>
	
		<rect x="441.4" y="355.6" transform="matrix(-1 -1.224647e-16 1.224647e-16 -1 919.3162 774.9515)" class="st7" width="36.6" height="63.8"/>
	<circle class="st7" cx="492.3" cy="387.5" r="8.8"/>
	<rect x="586.6" y="354.7" class="st7" width="36.6" height="63.8"/>
	<circle class="st7" cx="572.2" cy="386.6" r="8.8"/>
	
		<rect x="624.9" y="354.7" transform="matrix(-1 -1.224647e-16 1.224647e-16 -1 1286.4094 773.2102)" class="st7" width="36.6" height="63.8"/>
	<circle class="st7" cx="675.9" cy="386.6" r="8.8"/>
	
		<rect x="623.8" y="496.2" transform="matrix(-1 -1.224647e-16 1.224647e-16 -1 1284.2896 1056.2566)" class="st7" width="36.6" height="63.8"/>
	<circle class="st7" cx="674.8" cy="528.1" r="8.8"/>
	<text transform="matrix(1 0 0 1 228.6664 395.4187)" class="st8 st9 st10">13</text>
	<text transform="matrix(1 0 0 1 266.3691 395.4187)" class="st8 st9 st10">14</text>
	<text transform="matrix(1 0 0 1 407.2809 396.2896)" class="st8 st9 st10">16</text>
	<text transform="matrix(1 0 0 1 445.9838 396.2896)" class="st8 st9 st10">17</text>
	<text transform="matrix(1 0 0 1 590.5502 395.4188)" class="st8 st9 st10">18</text>
	<text transform="matrix(1 0 0 1 629.253 395.4188)" class="st8 st9 st10">19</text>
	<text transform="matrix(1 0 0 1 628.2525 536.9423)" class="st8 st9 st10">20</text>
	<text transform="matrix(1 0 0 1 571.0421 676.3056)" class="st8 st9 st10">21</text>
	<text transform="matrix(1 0 0 1 474.4771 676.3055)" class="st8 st9 st10">22</text>
	<text transform="matrix(1 0 0 1 377.7018 676.3054)" class="st8 st9 st10">23</text>
	<text transform="matrix(1 0 0 1 257.2412 686.6544)" class="st8 st9 st10">24</text>
</g>
<g id="Layer_2">
</g>
</svg>
