]<?xml version="1.0" encoding="utf-8"?>
<!-- Generator: Adobe Illustrator 24.0.1, SVG Export Plug-In . SVG Version: 6.00 Build 0)  -->
<svg version="1.1" xmlns="http://www.w3.org/2000/svg" xmlns:xlink="http://www.w3.org/1999/xlink" x="0px" y="0px"
	 viewBox="0 0 842 1191" style="enable-background:new 0 0 842 1191;" xml:space="preserve">
<style type="text/css">
	.st0{fill:#E3E4E5;}
	.st1{fill:none;stroke:#000000;stroke-width:0.12;stroke-linecap:round;stroke-linejoin:round;stroke-miterlimit:10;}
	.st2{fill:none;stroke:#939393;stroke-width:0.5;stroke-miterlimit:10;}
	.st3{fill:#939393;}
	.st4{fill:none;stroke:#939393;stroke-width:0.75;stroke-miterlimit:10;}
	.st5{fill:none;stroke:#000000;stroke-width:1.5;stroke-miterlimit:10;}
	.st6{font-family:'Roboto-Black';}
	.st7{font-size:13.0625px;}
	.st8{fill:none;stroke:#939393;stroke-width:2;stroke-miterlimit:10;}
	.st9{fill:#7A8487;}
	.st10{font-size:12.8815px;}
	.st11{fill:#939393;stroke:#939393;stroke-width:0.5;stroke-miterlimit:10;}
	.st12{fill:none;stroke:#7A8487;stroke-miterlimit:10;}
</style>
<g id="Layer_3">
	<path class="st0" d="M473.7,1041.8l91.8-0.3v76.3l-137,0.8H297.3l-1.1-76.2l3.6,1l123.7,0.3l13.5-1.8l0.1-84.3l-0.1-49.3
		l-0.1-407.6l-1.9-3.5l-5.3-6.4l-6.5-10.7l-2.8-16.1l3.6-13.8l4.6-8.9l8.4-9.4l0.3-117l-0.2-31.2l-35.5-1.3l1.3-24.9l34.5-2.3
		l0.7-15l127.4-0.1l-0.4,59.3l1.5,67.3l-94.5,1.5l-0.1,2.3v13.1l0,39.5l7,2.2l9.5,5.4l4,3.3l38.9,0h33l1.7,39.2l-61.3,0.2l-7.5,17
		c0,0-3,3.5-4.1,4.6c-1.1,1.1-4.9,4.3-4.9,4.3l-16.4,7.4l0.2,341.8l43.9-0.4l-0.1,37.6h49l0.7,90.6h-91.3L473.7,1041.8z"/>
</g>
<g id="Layer_1">
	<line class="st1" x1="298.2" y1="1110.2" x2="298.2" y2="1115.7"/>
	<line class="st1" x1="433.3" y1="205.8" x2="436.4" y2="205.8"/>
	<line class="st1" x1="436.4" y1="207" x2="562.7" y2="207"/>
	<line class="st1" x1="298.2" y1="1110.2" x2="298.2" y2="1115.7"/>
	<line class="st1" x1="299.7" y1="232.2" x2="434.2" y2="232.2"/>
	<line class="st1" x1="225" y1="383.8" x2="225" y2="387.6"/>
	<line class="st1" x1="437.3" y1="652.8" x2="438.8" y2="652.8"/>
	<line class="st1" x1="436.4" y1="205.8" x2="436.4" y2="207"/>
	<line class="st1" x1="436.4" y1="207.7" x2="487.8" y2="207.7"/>
	<line class="st1" x1="562.1" y1="207.5" x2="562.7" y2="208.3"/>
	<line class="st1" x1="562.1" y1="209" x2="562.7" y2="209.8"/>
	<line class="st1" x1="562.1" y1="208.7" x2="562.7" y2="207.9"/>
	<line class="st1" x1="562.1" y1="210.2" x2="562.7" y2="209.4"/>
	<line class="st1" x1="561.6" y1="207" x2="562.1" y2="207.5"/>
	<line class="st1" x1="559.9" y1="207" x2="560.6" y2="207.7"/>
	<line class="st1" x1="558.4" y1="207" x2="559.2" y2="207.7"/>
	<line class="st1" x1="556.7" y1="207" x2="557.6" y2="207.7"/>
	<line class="st1" x1="555.4" y1="207" x2="555.9" y2="207.7"/>
	<line class="st1" x1="553.7" y1="207" x2="554.5" y2="207.7"/>
	<line class="st1" x1="552.3" y1="207" x2="553.1" y2="207.7"/>
	<line class="st1" x1="550.6" y1="207" x2="551.5" y2="207.7"/>
	<line class="st1" x1="549.2" y1="207" x2="549.8" y2="207.7"/>
	<line class="st1" x1="547.6" y1="207" x2="548.4" y2="207.7"/>
	<line class="st1" x1="546.1" y1="207" x2="546.7" y2="207.7"/>
	<line class="st1" x1="544.4" y1="207" x2="545.4" y2="207.7"/>
	<line class="st1" x1="543" y1="207" x2="543.7" y2="207.7"/>
	<line class="st1" x1="541.4" y1="207" x2="542.2" y2="207.7"/>
	<line class="st1" x1="540" y1="207" x2="540.5" y2="207.7"/>
	<line class="st1" x1="538.3" y1="207" x2="539.1" y2="207.7"/>
	<line class="st1" x1="536.9" y1="207" x2="537.5" y2="207.7"/>
	<line class="st1" x1="535.3" y1="207" x2="536.1" y2="207.7"/>
	<line class="st1" x1="533.9" y1="207" x2="534.4" y2="207.7"/>
	<line class="st1" x1="532.2" y1="207" x2="533" y2="207.7"/>
	<line class="st1" x1="530.7" y1="207" x2="531.4" y2="207.7"/>
	<line class="st1" x1="529" y1="207" x2="529.9" y2="207.7"/>
	<line class="st1" x1="527.7" y1="207" x2="528.3" y2="207.7"/>
	<line class="st1" x1="526" y1="207" x2="526.8" y2="207.7"/>
	<line class="st1" x1="524.6" y1="207" x2="525.2" y2="207.7"/>
	<line class="st1" x1="522.9" y1="207" x2="523.8" y2="207.7"/>
	<line class="st1" x1="521.5" y1="207" x2="522.1" y2="207.7"/>
	<line class="st1" x1="519.9" y1="207" x2="520.7" y2="207.7"/>
	<line class="st1" x1="518.2" y1="207" x2="519" y2="207.7"/>
	<line class="st1" x1="516.8" y1="207" x2="517.7" y2="207.7"/>
	<line class="st1" x1="515.3" y1="207" x2="516" y2="207.7"/>
	<line class="st1" x1="513.8" y1="207" x2="514.5" y2="207.7"/>
	<line class="st1" x1="512.1" y1="207" x2="512.8" y2="207.7"/>
	<line class="st1" x1="510.6" y1="207" x2="511.4" y2="207.7"/>
	<line class="st1" x1="508.9" y1="207" x2="509.8" y2="207.7"/>
	<line class="st1" x1="507.6" y1="207" x2="508.4" y2="207.7"/>
	<line class="st1" x1="505.9" y1="207" x2="506.7" y2="207.7"/>
	<line class="st1" x1="504.5" y1="207" x2="505.3" y2="207.7"/>
	<line class="st1" x1="502.8" y1="207" x2="503.7" y2="207.7"/>
	<line class="st1" x1="501.3" y1="207" x2="502.3" y2="207.7"/>
	<line class="st1" x1="499.8" y1="207" x2="500.6" y2="207.7"/>
	<line class="st1" x1="498.3" y1="207" x2="499.1" y2="207.7"/>
	<line class="st1" x1="496.6" y1="207" x2="497.6" y2="207.7"/>
	<line class="st1" x1="495.2" y1="207" x2="496.1" y2="207.7"/>
	<line class="st1" x1="493.6" y1="207" x2="494.4" y2="207.7"/>
	<line class="st1" x1="492.2" y1="207" x2="493" y2="207.7"/>
	<line class="st1" x1="490.5" y1="207" x2="491.3" y2="207.7"/>
	<line class="st1" x1="489.1" y1="207" x2="489.7" y2="207.7"/>
	<line class="st1" x1="487.5" y1="207" x2="488.3" y2="207.7"/>
	<line class="st1" x1="486.1" y1="207" x2="486.8" y2="207.7"/>
	<line class="st1" x1="484.4" y1="207" x2="485.1" y2="207.7"/>
	<line class="st1" x1="482.9" y1="207" x2="483.6" y2="207.7"/>
	<line class="st1" x1="481.2" y1="207" x2="482.1" y2="207.7"/>
	<line class="st1" x1="479.8" y1="207" x2="480.7" y2="207.7"/>
	<line class="st1" x1="478.2" y1="207" x2="479" y2="207.7"/>
	<line class="st1" x1="476.8" y1="207" x2="477.4" y2="207.7"/>
	<line class="st1" x1="475.1" y1="207" x2="476" y2="207.7"/>
	<line class="st1" x1="473.7" y1="207" x2="474.3" y2="207.7"/>
	<line class="st1" x1="472.1" y1="207" x2="472.9" y2="207.7"/>
	<line class="st1" x1="470.6" y1="207" x2="471.2" y2="207.7"/>
	<line class="st1" x1="468.9" y1="207" x2="469.7" y2="207.7"/>
	<line class="st1" x1="467.5" y1="207" x2="468.2" y2="207.7"/>
	<line class="st1" x1="465.9" y1="207" x2="466.7" y2="207.7"/>
	<line class="st1" x1="464.5" y1="207" x2="465" y2="207.7"/>
	<line class="st1" x1="462.8" y1="207" x2="463.6" y2="207.7"/>
	<line class="st1" x1="461.4" y1="207" x2="462" y2="207.7"/>
	<line class="st1" x1="459.7" y1="207" x2="460.6" y2="207.7"/>
	<line class="st1" x1="458.4" y1="207" x2="458.9" y2="207.7"/>
	<line class="st1" x1="456.7" y1="207" x2="457.5" y2="207.7"/>
	<line class="st1" x1="455.2" y1="207" x2="455.9" y2="207.7"/>
	<line class="st1" x1="453.5" y1="207" x2="454.4" y2="207.7"/>
	<line class="st1" x1="452" y1="207" x2="452.8" y2="207.7"/>
	<line class="st1" x1="450.5" y1="207" x2="451.3" y2="207.7"/>
	<line class="st1" x1="449.1" y1="207" x2="449.6" y2="207.7"/>
	<line class="st1" x1="447.4" y1="207" x2="448.3" y2="207.7"/>
	<line class="st1" x1="445.8" y1="207" x2="446.6" y2="207.7"/>
	<line class="st1" x1="444.4" y1="207" x2="445.2" y2="207.7"/>
	<line class="st1" x1="443" y1="207" x2="443.5" y2="207.7"/>
	<line class="st1" x1="441.3" y1="207" x2="442" y2="207.7"/>
	<line class="st1" x1="439.7" y1="207" x2="440.5" y2="207.7"/>
	<line class="st1" x1="438.3" y1="207" x2="439" y2="207.7"/>
	<line class="st1" x1="436.8" y1="207" x2="437.3" y2="207.7"/>
	<line class="st1" x1="436.6" y1="207.7" x2="437.3" y2="207"/>
	<line class="st1" x1="438.1" y1="207.7" x2="438.8" y2="207"/>
	<line class="st1" x1="439.6" y1="207.7" x2="440.3" y2="207"/>
	<line class="st1" x1="441" y1="207.7" x2="442" y2="207"/>
	<line class="st1" x1="442.7" y1="207.7" x2="443.5" y2="207"/>
	<line class="st1" x1="444.3" y1="207.7" x2="444.9" y2="207"/>
	<line class="st1" x1="445.8" y1="207.7" x2="446.5" y2="207"/>
	<line class="st1" x1="447.4" y1="207.7" x2="448.2" y2="207"/>
	<line class="st1" x1="448.8" y1="207.7" x2="449.6" y2="207"/>
	<line class="st1" x1="450.4" y1="207.7" x2="451.1" y2="207"/>
	<line class="st1" x1="452" y1="207.7" x2="452.6" y2="207"/>
	<line class="st1" x1="453.5" y1="207.7" x2="454.3" y2="207"/>
	<line class="st1" x1="455" y1="207.7" x2="455.8" y2="207"/>
	<line class="st1" x1="456.5" y1="207.7" x2="457.5" y2="207"/>
	<line class="st1" x1="458.1" y1="207.7" x2="458.8" y2="207"/>
	<line class="st1" x1="459.7" y1="207.7" x2="460.5" y2="207"/>
	<line class="st1" x1="461.1" y1="207.7" x2="462" y2="207"/>
	<line class="st1" x1="462.7" y1="207.7" x2="463.6" y2="207"/>
	<line class="st1" x1="464.2" y1="207.7" x2="465" y2="207"/>
	<line class="st1" x1="465.8" y1="207.7" x2="466.5" y2="207"/>
	<line class="st1" x1="467.5" y1="207.7" x2="468.2" y2="207"/>
	<line class="st1" x1="468.8" y1="207.7" x2="469.7" y2="207"/>
	<line class="st1" x1="470.4" y1="207.7" x2="471.2" y2="207"/>
	<line class="st1" x1="472" y1="207.7" x2="472.6" y2="207"/>
	<line class="st1" x1="473.7" y1="207.7" x2="474.3" y2="207"/>
	<line class="st1" x1="475.1" y1="207.7" x2="475.9" y2="207"/>
	<line class="st1" x1="476.5" y1="207.7" x2="477.4" y2="207"/>
	<line class="st1" x1="478.1" y1="207.7" x2="478.7" y2="207"/>
	<line class="st1" x1="479.8" y1="207.7" x2="480.4" y2="207"/>
	<line class="st1" x1="481.2" y1="207.7" x2="482" y2="207"/>
	<line class="st1" x1="482.7" y1="207.7" x2="483.6" y2="207"/>
	<line class="st1" x1="484.2" y1="207.7" x2="485.1" y2="207"/>
	<line class="st1" x1="485.9" y1="207.7" x2="486.6" y2="207"/>
	<line class="st1" x1="487.4" y1="207.7" x2="488.1" y2="207"/>
	<line class="st1" x1="488.8" y1="207.7" x2="489.7" y2="207"/>
	<line class="st1" x1="490.4" y1="207.7" x2="491.3" y2="207"/>
	<line class="st1" x1="492.1" y1="207.7" x2="492.7" y2="207"/>
	<line class="st1" x1="493.5" y1="207.7" x2="494.3" y2="207"/>
	<line class="st1" x1="495.2" y1="207.7" x2="495.9" y2="207"/>
	<line class="st1" x1="496.5" y1="207.7" x2="497.4" y2="207"/>
	<line class="st1" x1="498.2" y1="207.7" x2="498.9" y2="207"/>
	<line class="st1" x1="499.6" y1="207.7" x2="500.4" y2="207"/>
	<line class="st1" x1="501.3" y1="207.7" x2="502" y2="207"/>
	<line class="st1" x1="502.8" y1="207.7" x2="503.6" y2="207"/>
	<line class="st1" x1="504.3" y1="207.7" x2="505.3" y2="207"/>
	<line class="st1" x1="505.8" y1="207.7" x2="506.6" y2="207"/>
	<line class="st1" x1="507.5" y1="207.7" x2="508.1" y2="207"/>
	<line class="st1" x1="508.9" y1="207.7" x2="509.7" y2="207"/>
	<line class="st1" x1="510.5" y1="207.7" x2="511.4" y2="207"/>
	<line class="st1" x1="512.1" y1="207.7" x2="512.8" y2="207"/>
	<line class="st1" x1="513.6" y1="207.7" x2="514.3" y2="207"/>
	<line class="st1" x1="515.3" y1="207.7" x2="515.8" y2="207"/>
	<line class="st1" x1="516.5" y1="207.7" x2="517.5" y2="207"/>
	<line class="st1" x1="518.2" y1="207.7" x2="519" y2="207"/>
	<line class="st1" x1="519.8" y1="207.7" x2="520.4" y2="207"/>
	<line class="st1" x1="521.5" y1="207.7" x2="522" y2="207"/>
	<line class="st1" x1="522.9" y1="207.7" x2="523.7" y2="207"/>
	<line class="st1" x1="524.3" y1="207.7" x2="525.1" y2="207"/>
	<line class="st1" x1="525.9" y1="207.7" x2="526.6" y2="207"/>
	<line class="st1" x1="527.5" y1="207.7" x2="528.1" y2="207"/>
	<line class="st1" x1="529" y1="207.7" x2="529.8" y2="207"/>
	<line class="st1" x1="530.5" y1="207.7" x2="531.3" y2="207"/>
	<line class="st1" x1="532" y1="207.7" x2="533" y2="207"/>
	<line class="st1" x1="533.6" y1="207.7" x2="534.4" y2="207"/>
	<line class="st1" x1="535.2" y1="207.7" x2="536" y2="207"/>
	<line class="st1" x1="536.6" y1="207.7" x2="537.4" y2="207"/>
	<line class="st1" x1="538.2" y1="207.7" x2="539.1" y2="207"/>
	<line class="st1" x1="539.7" y1="207.7" x2="540.5" y2="207"/>
	<line class="st1" x1="541.3" y1="207.7" x2="542.1" y2="207"/>
	<line class="st1" x1="543" y1="207.7" x2="543.5" y2="207"/>
	<line class="st1" x1="544.4" y1="207.7" x2="545.2" y2="207"/>
	<line class="st1" x1="545.9" y1="207.7" x2="546.7" y2="207"/>
	<line class="st1" x1="547.5" y1="207.7" x2="548.2" y2="207"/>
	<line class="st1" x1="549.2" y1="207.7" x2="549.7" y2="207"/>
	<line class="st1" x1="550.6" y1="207.7" x2="551.4" y2="207"/>
	<line class="st1" x1="552" y1="207.7" x2="552.8" y2="207"/>
	<line class="st1" x1="553.6" y1="207.7" x2="554.5" y2="207"/>
	<line class="st1" x1="555.3" y1="207.7" x2="555.8" y2="207"/>
	<line class="st1" x1="556.7" y1="207.7" x2="557.5" y2="207"/>
	<line class="st1" x1="558.2" y1="207.7" x2="558.9" y2="207"/>
	<line class="st1" x1="559.7" y1="207.7" x2="560.6" y2="207"/>
	<line class="st1" x1="561.4" y1="207.7" x2="562.1" y2="207"/>
	<line class="st1" x1="299.7" y1="982" x2="299.7" y2="981.8"/>
	<line class="st1" x1="299.7" y1="369.9" x2="299.7" y2="370"/>
	<line class="st1" x1="432.9" y1="1117.3" x2="436.6" y2="1121.1"/>
	<line class="st1" x1="432.9" y1="1118.1" x2="435.9" y2="1121.1"/>
	<line class="st1" x1="432.9" y1="1119" x2="435.1" y2="1121.1"/>
	<line class="st1" x1="432.9" y1="1119.6" x2="434.3" y2="1121.1"/>
	<line class="st1" x1="432.9" y1="1120.4" x2="433.4" y2="1121.1"/>
	<line class="st1" x1="299.7" y1="500.7" x2="299.8" y2="500.7"/>
	<line class="st1" x1="299.7" y1="631.4" x2="299.9" y2="631.4"/>
	<line class="st1" x1="299.7" y1="783.9" x2="299.9" y2="783.9"/>
	<line class="st1" x1="299.7" y1="914.6" x2="299.7" y2="914.9"/>
	<line class="st1" x1="437.3" y1="846.2" x2="437.5" y2="846.2"/>
	<line class="st1" x1="489.5" y1="207.7" x2="562.1" y2="207.7"/>
	<line class="st1" x1="299.5" y1="979.9" x2="299.7" y2="979.9"/>
	<line class="st1" x1="433" y1="494.7" x2="434.7" y2="496.4"/>
	<line class="st1" x1="433" y1="495.4" x2="434.7" y2="497.1"/>
	<line class="st1" x1="437.3" y1="431.8" x2="437.7" y2="432.2"/>
	<line class="st1" x1="438.6" y1="502.5" x2="438.8" y2="502.8"/>
	<line class="st1" x1="437.9" y1="502.5" x2="438.8" y2="503.4"/>
	<line class="st1" x1="437.3" y1="502.5" x2="438.8" y2="504.2"/>
	<line class="st1" x1="437.3" y1="503.4" x2="438.8" y2="505"/>
	<line class="st1" x1="437.3" y1="504.2" x2="438.8" y2="505.9"/>
	<line class="st1" x1="437.3" y1="505" x2="438.8" y2="506.5"/>
	<line class="st1" x1="437.3" y1="505.6" x2="438.8" y2="507.3"/>
	<line class="st1" x1="437.3" y1="506.4" x2="438.8" y2="508.1"/>
	<line class="st1" x1="437.3" y1="507.3" x2="438.8" y2="508.9"/>
	<line class="st1" x1="437.3" y1="508.1" x2="438.8" y2="509.8"/>
	<line class="st1" x1="437.3" y1="508.9" x2="438.8" y2="510.3"/>
	<line class="st1" x1="437.3" y1="509.6" x2="438.8" y2="511.1"/>
	<line class="st1" x1="437.3" y1="510.3" x2="438.8" y2="512"/>
	<line class="st1" x1="437.3" y1="511.1" x2="438.8" y2="512.7"/>
	<line class="st1" x1="437.3" y1="511.8" x2="438.8" y2="513.5"/>
	<line class="st1" x1="437.3" y1="512.6" x2="438.8" y2="514.3"/>
	<line class="st1" x1="437.3" y1="513.5" x2="438.8" y2="515"/>
	<line class="st1" x1="437.3" y1="514.3" x2="438.8" y2="516"/>
	<line class="st1" x1="437.3" y1="515" x2="438.8" y2="516.6"/>
	<line class="st1" x1="437.3" y1="515.7" x2="438.8" y2="517.4"/>
	<line class="st1" x1="437.3" y1="516.5" x2="438.8" y2="518.2"/>
	<line class="st1" x1="437.3" y1="517.4" x2="438.8" y2="518.8"/>
	<line class="st1" x1="437.3" y1="517.9" x2="438.8" y2="519.9"/>
	<line class="st1" x1="437.3" y1="518.8" x2="438.8" y2="520.4"/>
	<line class="st1" x1="437.3" y1="519.6" x2="438.8" y2="521.2"/>
	<line class="st1" x1="437.3" y1="652.1" x2="438.1" y2="652.8"/>
	<rect x="490.9" y="883" class="st3" width="10.2" height="4.6"/>
	<rect x="473.3" y="882.9" class="st3" width="10.1" height="4.7"/>
	
		<rect x="456.5" y="866" transform="matrix(-1.836970e-16 1 -1 -1.836970e-16 1343.9993 392.7656)" class="st3" width="38.3" height="4.7"/>
	<rect x="473.4" y="849.3" class="st3" width="43.3" height="4.7"/>
	
		<rect x="495.8" y="866.6" transform="matrix(-1.836970e-16 1 -1 -1.836970e-16 1383.3296 354.5129)" class="st3" width="37.2" height="4.6"/>
	<rect x="508.3" y="883" class="st3" width="7.2" height="4.6"/>
	
		<rect x="-112.5" y="639.2" transform="matrix(6.123234e-17 -1 1 6.123234e-17 -343.386 938.9858)" class="st3" width="820.5" height="4"/>
	<rect x="295.8" y="231" class="st3" width="145.4" height="4.1"/>
	<rect x="432.9" y="204.3" class="st3" width="133.3" height="4.1"/>
	<path class="st3" d="M435.2,503.2h-0.3v0h-40.5v0.5h3.3v11.1h-3.4v0.5h29.1v4.6h0.3v0h11.2v0h0.3V503.2z M400.9,514.8h-2.7v-11.1
		h2.7V514.8z M404.1,514.8h-2.7v-11.1h2.7V514.8z M407.3,514.8h-2.7v-11.1h2.7V514.8z M410.5,514.8h-2.7v-11.1h2.7V514.8z
		 M413.7,514.8H411v-11.1h2.7V514.8z M416.9,514.8h-2.7v-11.1h2.7V514.8z M420.2,514.8h-2.7v-11.1h2.7V514.8z M423.4,514.8h-2.7
		v-11.1h2.7V514.8z M423.9,503.7h10.7v11.1h-10.7V503.7z M423.9,515.3h10.7v1.7h-10.7V515.3z M423.9,517.6h10.7v1.7h-10.7V517.6z"/>
	<rect x="297.7" y="497.2" class="st3" width="139.6" height="4"/>
	
		<rect x="425.5" y="510.2" transform="matrix(-1.836970e-16 1 -1 -1.836970e-16 949.1228 73.405)" class="st3" width="24.6" height="2.1"/>
	
		<rect x="408.8" y="566.7" transform="matrix(-1.836970e-16 1 -1 -1.836970e-16 1005.5258 129.8605)" class="st3" width="58.1" height="2"/>
	<path class="st3" d="M434.9,609.7L434.9,609.7l-11.2,0v0h-0.3v4.7h-28.8v0h-0.5v12.2h0.2v0h29.1v0h0.5v0h10.7v0h0.5v-16.9H434.9z
		 M434.6,610.2v1.7h-10.7v-1.7H434.6z M423.9,612.5h10.7v1.9h-10.7V612.5z M401.4,615h2.7V626h-2.7V615z M400.8,626h-2.7V615h2.7
		V626z M404.6,615h2.7V626h-2.7V615z M407.8,615h2.7V626h-2.7V615z M411,615h2.7V626H411V615z M414.2,615h2.7V626h-2.7V615z
		 M417.4,615h2.7V626h-2.7V615z M397.6,615V626h-3V615H397.6z M420.7,626V615h2.7V626H420.7z M423.9,626V615h10.7V626H423.9z"/>
	<rect x="297.8" y="628.6" class="st3" width="141.1" height="4"/>
	
		<rect x="415" y="630" transform="matrix(-1.836970e-16 1 -1 -1.836970e-16 1068.7283 193.2569)" class="st3" width="45.5" height="2.1"/>
	
		<rect x="404.3" y="701.2" transform="matrix(-1.836970e-16 1 -1 -1.836970e-16 1140.2316 264.2526)" class="st3" width="67.4" height="2.1"/>
	<polyline class="st2" points="302.1,626.4 394.3,626.4 394.3,503.4 302.1,503.4 302.1,626.4 	"/>
	<rect x="296.5" y="906.2" class="st3" width="140.5" height="4"/>
	<rect x="436.9" y="406" class="st3" width="2.1" height="26.2"/>
	
		<rect x="413.4" y="368.7" transform="matrix(6.123234e-17 -1 1 6.123234e-17 68.3913 808.006)" class="st3" width="49.6" height="2.1"/>
	<rect x="296.2" y="365.2" class="st3" width="141.4" height="4"/>
	<path class="st3" d="M434.8,371.3h-0.3v0H394v0.5h3.3v11.1h-3.4v0.5H423v4.6h0.3v0h11.2v0h0.3V371.3z M400.5,382.9h-2.7v-11.1h2.7
		V382.9z M403.7,382.9H401v-11.1h2.7V382.9z M406.9,382.9h-2.7v-11.1h2.7V382.9z M410.1,382.9h-2.7v-11.1h2.7V382.9z M413.3,382.9
		h-2.7v-11.1h2.7V382.9z M416.5,382.9h-2.7v-11.1h2.7V382.9z M419.8,382.9h-2.7v-11.1h2.7V382.9z M423,382.9h-2.7v-11.1h2.7V382.9z
		 M423.5,371.8h10.7v11.1h-10.7V371.8z M423.5,383.4h10.7v1.7h-10.7V383.4z M423.5,385.7h10.7v1.7h-10.7V385.7z"/>
	<path class="st3" d="M397.9,495h16.9v-0.5h0v-10.7h0v-0.5h0v-29.1h0V454h-12.2v0.5h0v28.8h-4.7v0.3h0v11.2h0V495z M398.4,483.8h1.7
		v10.7h-1.7V483.8z M402.6,483.8v10.7h-1.9v-10.7H402.6z M414.2,461.3v2.7h-11.1v-2.7H414.2z M403.1,460.7V458h11.1v2.7H403.1z
		 M414.2,464.5v2.7h-11.1v-2.7H414.2z M414.2,467.7v2.7h-11.1v-2.7H414.2z M414.2,470.9v2.7h-11.1v-2.7H414.2z M414.2,474.1v2.7
		h-11.1v-2.7H414.2z M414.2,477.3v2.7h-11.1v-2.7H414.2z M403.1,454.5h11.1v3h-11.1V454.5z M414.2,483.3h-11.1v-2.7h11.1V483.3z
		 M414.2,494.5h-11.1v-10.7h11.1V494.5z"/>
	<polyline class="st2" points="301.7,494.5 393.9,494.5 393.9,371.6 301.7,371.6 301.7,494.5 	"/>
	
		<rect x="413.9" y="305.6" transform="matrix(6.123234e-17 -1 1 6.123234e-17 131.5255 744.4802)" class="st3" width="48.3" height="1.8"/>
	<path class="st3" d="M434.5,346.3L434.5,346.3l-11.2,0v0H423v4.7h-28.8v0h-0.5v12.2h0.2v0H423v0h0.5v0h10.7v0h0.5v-16.9H434.5z
		 M434.2,346.8v1.7h-10.7v-1.7H434.2z M423.5,349.1h10.7v1.9h-10.7V349.1z M401,351.6h2.7v11.1H401V351.6z M400.4,362.6h-2.7v-11.1
		h2.7V362.6z M404.2,351.6h2.7v11.1h-2.7V351.6z M407.4,351.6h2.7v11.1h-2.7V351.6z M410.6,351.6h2.7v11.1h-2.7V351.6z M413.8,351.6
		h2.7v11.1h-2.7V351.6z M417,351.6h2.7v11.1H417V351.6z M397.2,351.6v11.1h-3v-11.1H397.2z M420.3,362.6v-11.1h2.7v11.1H420.3z
		 M423.5,362.6v-11.1h10.7v11.1H423.5z"/>
	<polyline class="st2" points="301.7,363 393.9,363 393.9,237.3 301.7,237.3 301.7,363 	"/>
	
		<rect x="431.9" y="276.6" transform="matrix(6.123234e-17 -1 1 6.123234e-17 157.5879 715.5607)" class="st3" width="9.3" height="4.7"/>
	<rect x="400.4" y="278.9" class="st3" width="38.5" height="4.7"/>
	
		<rect x="388.3" y="266.8" transform="matrix(6.123234e-17 -1 1 6.123234e-17 133.6545 671.961)" class="st3" width="28.9" height="4.7"/>
	<rect x="401.5" y="254.7" class="st3" width="37.6" height="4.6"/>
	
		<rect x="432.3" y="256.9" transform="matrix(6.123234e-17 -1 1 6.123234e-17 177.6111 696.0516)" class="st3" width="9.1" height="4.6"/>
	
		<rect x="134.9" y="688.4" transform="matrix(6.123234e-17 -1 1 6.123234e-17 -124.8705 1255.8295)" class="st3" width="861.1" height="4"/>
	
		<rect x="258.2" y="1079.5" transform="matrix(6.123234e-17 -1 1 6.123234e-17 -783.6921 1379.2919)" class="st3" width="79.3" height="4"/>
	<rect x="295.8" y="1117.3" class="st3" width="271.6" height="4"/>
	
		<rect x="434.2" y="234.1" transform="matrix(-1.836970e-16 1 -1 -1.836970e-16 675.4891 -203.1906)" class="st3" width="10.3" height="4.1"/>
	<path class="st3" d="M434.8,635.3h-0.3v0H394v0.5h3.3v11.1h-3.4v0.5H423v4.6h0.3v0h11.2v0h0.3V635.3z M400.5,646.9h-2.7v-11.1h2.7
		V646.9z M403.7,646.9H401v-11.1h2.7V646.9z M406.9,646.9h-2.7v-11.1h2.7V646.9z M410.1,646.9h-2.7v-11.1h2.7V646.9z M413.3,646.9
		h-2.7v-11.1h2.7V646.9z M416.5,646.9h-2.7v-11.1h2.7V646.9z M419.8,646.9h-2.7v-11.1h2.7V646.9z M423,646.9h-2.7v-11.1h2.7V646.9z
		 M423.5,635.8h10.7v11.1h-10.7V635.8z M423.5,647.4h10.7v1.7h-10.7V647.4z M423.5,649.7h10.7v1.7h-10.7V649.7z"/>
	<rect x="296.4" y="767.6" class="st3" width="142.6" height="4"/>
	<polyline class="st2" points="540,300.5 565.5,300.5 565.5,240.9 540,240.9 540,300.5 	"/>
	<path class="st3" d="M508.5,257.8v27h31.6v-27H508.5z M515.7,258.3h2.9v26h-2.9V258.3z M515.2,284.2h-2.9v-26h2.9V284.2z
		 M519.2,258.3h2.9v26h-2.9V258.3z M522.6,258.3h2.9v26h-2.9V258.3z M526.1,258.3h2.9v26h-2.9V258.3z M529.6,258.3h2.9v26h-2.9
		V258.3z M533,258.3h2.9v26H533V258.3z M509,258.3h2.7v26H509V258.3z M539.5,284.2h-3.1v-26h3.1V284.2z"/>
	<polyline class="st2" points="337.2,1043 297.8,1043 297.8,1118.5 337.2,1118.5 337.2,1043 	"/>
	<path class="st3" d="M368.6,1096.5v-32.8h-31.6v32.8H368.6z M361.3,1095.8h-2.9v-31.5h2.9V1095.8z M361.8,1064.3h2.9v31.5h-2.9
		V1064.3z M357.8,1095.8h-2.9v-31.5h2.9V1095.8z M354.4,1095.8h-2.9v-31.5h2.9V1095.8z M350.9,1095.8H348v-31.5h2.9V1095.8z
		 M347.5,1095.8h-2.9v-31.5h2.9V1095.8z M344,1095.8h-2.9v-31.5h2.9V1095.8z M368,1095.8h-2.7v-31.5h2.7V1095.8z M337.5,1064.3h3.1
		v31.5h-3.1V1064.3z"/>
	<rect x="407.4" y="262" class="st4" width="25" height="14.9"/>
	<text transform="matrix(1 0 0 1 337.7205 303.9492)" class="st6 st7">306</text>
	<text transform="matrix(1 0 0 1 337.7205 437.0693)" class="st6 st7">305</text>
	<text transform="matrix(1 0 0 1 337.7209 567.1782)" class="st6 st7">304</text>
	<text transform="matrix(1 0 0 1 337.7205 706.4897)" class="st6 st7">303</text>
	<circle class="st5" cx="517.5" cy="1089.3" r="2.2"/>
	<path d="M518.2,1062.2h-1.5l-4,7.7h9.6L518.2,1062.2z M517.5,1063.6l2.7,5.2h-5.4L517.5,1063.6z"/>
	<circle class="st5" cx="517.5" cy="1060.2" r="2.2"/>
	<path d="M516.8,1100.6h1.4l4-8.8h-9.4L516.8,1100.6z M517.5,1099.1l-2.7-5.9h5.3L517.5,1099.1z"/>
	<circle class="st5" cx="530" cy="346.8" r="2.2"/>
	<path d="M530.9,316.5h-1.5l-4,7.7h9.6L530.9,316.5z M530.2,317.9l2.7,5.2h-5.4L530.2,317.9z"/>
	<circle class="st5" cx="530.3" cy="314.5" r="2.2"/>
	<path d="M529.2,358.2h1.4l4-8.8h-9.4L529.2,358.2z M529.9,356.7l-2.7-5.9h5.3L529.9,356.7z"/>
	<path class="st3" d="M490.8,698.8h-16.9v0.5h0v9.8h0v0.5h0v26.7h0v0.2H486V736h0v-26.4h4.7v-0.2h0v-10.3h0V698.8z M490.2,709.1
		h-1.7v-9.8h1.7V709.1z M486,709.1v-9.8h1.9v9.8H486z M474.4,729.8v-2.5h11.1v2.5H474.4z M485.5,730.3v2.5h-11.1v-2.5H485.5z
		 M474.4,726.8v-2.4h11.1v2.4H474.4z M474.4,723.9v-2.5h11.1v2.5H474.4z M474.4,721v-2.5h11.1v2.5H474.4z M474.4,718v-2.5h11.1v2.5
		H474.4z M474.4,715.1v-2.5h11.1v2.5H474.4z M485.5,736h-11.1v-2.8h11.1V736z M474.4,709.6h11.1v2.5h-11.1V709.6z M474.4,699.3h11.1
		v9.8h-11.1V699.3z"/>
	<path class="st3" d="M491.1,845.9L491.1,845.9l0-10.7h0V835h-4.7v-27.3h0v-0.5h-12.2v0.2h0V835h0v0.5h0v10.2h0v0.5h16.9V845.9z
		 M490.6,845.6h-1.7v-10.2h1.7V845.6z M488.3,835.5v10.2h-1.9v-10.2H488.3z M485.9,814.1v2.5h-11.1v-2.5H485.9z M474.8,813.6V811
		h11.1v2.5H474.8z M485.9,817.1v2.5h-11.1v-2.5H485.9z M485.9,820.2v2.5h-11.1v-2.5H485.9z M485.9,823.2v2.5h-11.1v-2.5H485.9z
		 M485.9,826.3v2.5h-11.1v-2.5H485.9z M485.9,829.3v2.6h-11.1v-2.6H485.9z M485.9,810.5h-11.1v-2.9h11.1V810.5z M474.8,832.4h11.1
		v2.5h-11.1V832.4z M474.8,835.5h11.1v10.2h-11.1V835.5z"/>
	<polyline class="st2" points="498.2,845.6 561.1,845.6 561.1,698.8 498.2,698.8 498.2,845.6 	"/>
	<text transform="matrix(1 0 0 1 513.1379 776.8702)" class="st6 st7">318</text>
	<path class="st3" d="M508.5,285.8V300h31.6v-14.1H508.5z M515.7,286.1h2.9v13.6h-2.9V286.1z M515.2,299.7h-2.9v-13.6h2.9V299.7z
		 M519.2,286.1h2.9v13.6h-2.9V286.1z M522.6,286.1h2.9v13.6h-2.9V286.1z M526.1,286.1h2.9v13.6h-2.9V286.1z M529.6,286.1h2.9v13.6
		h-2.9V286.1z M533,286.1h2.9v13.6H533V286.1z M509,286.1h2.7v13.6H509V286.1z M539.5,299.7h-3.1v-13.6h3.1V299.7z"/>
	<path class="st3" d="M508.5,241.3v15.4h31.6v-15.4H508.5z M515.7,241.6h2.9v14.8h-2.9V241.6z M515.2,256.4h-2.9v-14.8h2.9V256.4z
		 M519.2,241.6h2.9v14.8h-2.9V241.6z M522.6,241.6h2.9v14.8h-2.9V241.6z M526.1,241.6h2.9v14.8h-2.9V241.6z M529.6,241.6h2.9v14.8
		h-2.9V241.6z M533,241.6h2.9v14.8H533V241.6z M509,241.6h2.7v14.8H509V241.6z M539.5,256.4h-3.1v-14.8h3.1V256.4z"/>
	<path class="st3" d="M492.4,433.9c-1.3-1.2-2.6-2.3-4-3.3l-1,1.8c0.7,0.5,1.3,1,2,1.6c0.7,0.6,1.4,1.2,2.1,1.9h2.9
		C493.6,435.1,493,434.5,492.4,433.9z M469.9,422.6v2.1c0.6,0.1,1.3,0.3,1.9,0.4c2.1,0.5,4.1,1.1,6,1.9l1-1.8
		c-2.3-0.9-4.6-1.7-7-2.2C471.2,422.8,470.6,422.7,469.9,422.6z M486.8,497.9c-4.3,3.1-9.3,5.4-14.6,6.7c-0.6,0.1-1.2,0.3-1.8,0.4
		c-2.5,0.5-5.1,0.7-7.7,0.7c-1.3,0-2.7-0.1-4-0.2v1.9c1.3,0.1,2.6,0.2,4,0.2c2.6,0,5.2-0.2,7.7-0.7c0.6-0.1,1.2-0.2,1.8-0.4
		c5.9-1.3,11.4-3.9,16-7.3L486.8,497.9z M503,471.6c-0.1,0.6-0.2,1.2-0.3,1.8c-1.1,5.7-3.5,11.1-6.9,15.6l1.4,1.4
		c3.7-5,6.3-10.8,7.5-17c0.1-0.6,0.2-1.2,0.3-1.8H503z M421.8,465.4c0-13,6-24.5,15.2-31.9c0.6-0.5,1.3-1,2-1.5v-2.3
		c-0.7,0.5-1.4,0.9-2,1.4c-10.3,7.6-17.1,20.2-17.1,34.3c0,18.6,11.7,34.4,27.9,40v-2C432.6,497.9,421.8,482.9,421.8,465.4z"/>
	<path class="st3" d="M434.2,748.4L434.2,748.4l-11.2,0v0h-0.3v4.7H394v0h-0.5v12.2h0.2v0h29.1v0h0.5v0h10.7v0h0.5v-16.9H434.2z
		 M433.9,748.9v1.7h-10.7v-1.7H433.9z M423.3,751.2h10.7v1.9h-10.7V751.2z M400.7,753.7h2.7v11.1h-2.7V753.7z M400.2,764.7h-2.7
		v-11.1h2.7V764.7z M403.9,753.7h2.7v11.1h-2.7V753.7z M407.1,753.7h2.7v11.1h-2.7V753.7z M410.4,753.7h2.7v11.1h-2.7V753.7z
		 M413.6,753.7h2.7v11.1h-2.7V753.7z M416.8,753.7h2.7v11.1h-2.7V753.7z M397,753.7v11.1h-3v-11.1H397z M420,764.7v-11.1h2.7v11.1
		H420z M423.3,764.7v-11.1h10.7v11.1H423.3z"/>
	<polyline class="st2" points="301.5,765.1 393.6,765.1 393.6,635.3 301.5,635.3 301.5,765.1 	"/>
	
		<rect x="404.3" y="839.8" transform="matrix(-1.836970e-16 1 -1 -1.836970e-16 1278.8652 402.8863)" class="st3" width="67.4" height="2.1"/>
	<path class="st3" d="M434.8,773.9h-0.3v0H394v0.5h3.3v11.1h-3.4v0.5H423v4.6h0.3v0h11.2v0h0.3V773.9z M400.5,785.5h-2.7v-11.1h2.7
		V785.5z M403.7,785.5H401v-11.1h2.7V785.5z M406.9,785.5h-2.7v-11.1h2.7V785.5z M410.1,785.5h-2.7v-11.1h2.7V785.5z M413.3,785.5
		h-2.7v-11.1h2.7V785.5z M416.5,785.5h-2.7v-11.1h2.7V785.5z M419.8,785.5h-2.7v-11.1h2.7V785.5z M423,785.5h-2.7v-11.1h2.7V785.5z
		 M423.5,774.4h10.7v11.1h-10.7V774.4z M423.5,786.1h10.7v1.7h-10.7V786.1z M423.5,788.4h10.7v1.7h-10.7V788.4z"/>
	<text transform="matrix(1 0 0 1 337.7205 845.1234)" class="st6 st7">302</text>
	<path class="st3" d="M434.2,887L434.2,887l-11.2,0v0h-0.3v4.7H394v0h-0.5v12.2h0.2v0h29.1v0h0.5v0h10.7v0h0.5V887H434.2z
		 M433.9,887.6v1.7h-10.7v-1.7H433.9z M423.3,889.8h10.7v1.9h-10.7V889.8z M400.7,892.3h2.7v11.1h-2.7V892.3z M400.2,903.4h-2.7
		v-11.1h2.7V903.4z M403.9,892.3h2.7v11.1h-2.7V892.3z M407.1,892.3h2.7v11.1h-2.7V892.3z M410.4,892.3h2.7v11.1h-2.7V892.3z
		 M413.6,892.3h2.7v11.1h-2.7V892.3z M416.8,892.3h2.7v11.1h-2.7V892.3z M397,892.3v11.1h-3v-11.1H397z M420,903.4v-11.1h2.7v11.1
		H420z M423.3,903.4v-11.1h10.7v11.1H423.3z"/>
	<polyline class="st2" points="301.5,903.7 393.6,903.7 393.6,773.9 301.5,773.9 301.5,903.7 	"/>
	
		<rect x="404.8" y="977.3" transform="matrix(-1.836970e-16 1 -1 -1.836970e-16 1416.3652 540.3862)" class="st3" width="66.5" height="2.1"/>
	<path class="st3" d="M434.8,912.4h-0.3v0H394v0.5h3.3v10.9h-3.4v0.5H423v4.5h0.3v0h11.2v0h0.3V912.4z M400.5,923.8h-2.7v-10.9h2.7
		V923.8z M403.7,923.8H401v-10.9h2.7V923.8z M406.9,923.8h-2.7v-10.9h2.7V923.8z M410.1,923.8h-2.7v-10.9h2.7V923.8z M413.3,923.8
		h-2.7v-10.9h2.7V923.8z M416.5,923.8h-2.7v-10.9h2.7V923.8z M419.8,923.8h-2.7v-10.9h2.7V923.8z M423,923.8h-2.7v-10.9h2.7V923.8z
		 M423.5,912.9h10.7v10.9h-10.7V912.9z M423.5,924.3h10.7v1.7h-10.7V924.3z M423.5,926.6h10.7v1.7h-10.7V926.6z"/>
	<text transform="matrix(1.0141 0 0 1 337.7207 982.5645)" class="st6 st10">301</text>
	<path class="st3" d="M434.2,1023.9L434.2,1023.9l-11.2,0v0h-0.3v4.7H394v0h-0.5v12h0.2v0h29.1v0h0.5v0h10.7v0h0.5v-16.7H434.2z
		 M433.9,1024.4v1.7h-10.7v-1.7H433.9z M423.3,1026.7h10.7v1.9h-10.7V1026.7z M400.7,1029.1h2.7v10.9h-2.7V1029.1z M400.2,1040h-2.7
		v-10.9h2.7V1040z M403.9,1029.1h2.7v10.9h-2.7V1029.1z M407.1,1029.1h2.7v10.9h-2.7V1029.1z M410.4,1029.1h2.7v10.9h-2.7V1029.1z
		 M413.6,1029.1h2.7v10.9h-2.7V1029.1z M416.8,1029.1h2.7v10.9h-2.7V1029.1z M397,1029.1v10.9h-3v-10.9H397z M420,1040v-10.9h2.7
		v10.9H420z M423.3,1040v-10.9h10.7v10.9H423.3z"/>
	<polyline class="st2" points="301.5,1040.3 393.6,1040.3 393.6,912.3 301.5,912.3 301.5,1040.3 	"/>
	<path class="st3" d="M336.9,1043.4v16.8h31.6v-16.8H336.9z M344.2,1043.7h2.9v16.1h-2.9V1043.7z M343.7,1059.8h-2.9v-16.1h2.9
		V1059.8z M347.7,1043.7h2.9v16.1h-2.9V1043.7z M351.1,1043.7h2.9v16.1h-2.9V1043.7z M354.6,1043.7h2.9v16.1h-2.9V1043.7z
		 M358,1043.7h2.9v16.1H358V1043.7z M361.5,1043.7h2.9v16.1h-2.9V1043.7z M337.5,1043.7h2.7v16.1h-2.7V1043.7z M368,1059.8H365
		v-16.1h3.1V1059.8z"/>
	<path class="st3" d="M337.1,1100v17.3h31.6V1100H337.1z M344.4,1100.3h2.9v16.6h-2.9V1100.3z M343.8,1116.9h-2.9v-16.6h2.9V1116.9z
		 M347.8,1100.3h2.9v16.6h-2.9V1100.3z M351.3,1100.3h2.9v16.6h-2.9V1100.3z M354.8,1100.3h2.9v16.6h-2.9V1100.3z M358.2,1100.3h2.9
		v16.6h-2.9V1100.3z M361.7,1100.3h2.9v16.6h-2.9V1100.3z M337.6,1100.3h2.7v16.6h-2.7V1100.3z M368.2,1116.9h-3.1v-16.6h3.1V1116.9
		z"/>
	<path d="M518.1,998c0.4,0.2,0.8,0.4,1.1,0.7c-0.7,1.2-1.4,2.4-2.1,3.6c-0.4-0.2-0.8-0.4-1.1-0.7
		C516.7,1000.4,517.4,999.2,518.1,998z"/>
	<path d="M516.6,998.6c-0.7,1.2-1.4,2.4-2.1,3.6c-0.4-0.2-0.8-0.4-1.1-0.7c0.7-1.2,1.4-2.4,2.1-3.6
		C515.8,998.2,516.2,998.4,516.6,998.6z"/>
	<path d="M519.8,1002.2c-0.4-0.2-0.8-0.4-1.1-0.7c0.7-1.2,1.4-2.4,2.1-3.6c0.4,0.2,0.8,0.4,1.1,0.7
		C521.1,999.8,520.4,1001,519.8,1002.2z"/>
	<path d="M524.3,1004.7c-0.6,0-1.1,0-1.7,0v0H517v0c-2.3,0-4.7,0-7,0c0,0-0.1,0-0.1,0c0,0,0,0.1,0,0.1c0,1,0,2.1,0,3.1
		c0,0.2,0,0.5,0,0.7c0.3,2,1.2,3.7,2.8,4.9c0,0,0.1,0.1,0.1,0.1c-0.5,0-0.9,0-1.4,0c-0.4,0-0.8,0.1-1.2,0c0,0,0,0,0,0
		c0,0.4,0,0.9,0,1.3c4.6,0,9.1,0,13.6,0c0-0.4,0-0.9,0-1.3c-0.9,0-1.7,0-2.6,0c0,0,0,0,0-0.1c0,0,0,0,0,0c1.2-0.9,2-2,2.5-3.4
		c0.1-0.3,0.1-0.3,0.5-0.4c1.3,0,2.3-0.9,2.5-2.1C527.1,1006.1,525.9,1004.7,524.3,1004.7z M522.9,1006.7c0,0.6,0,1.3-0.1,1.9
		c-0.2,1.7-1.1,3.1-2.5,4c-1.7,1.2-3.6,1.4-5.5,0.6c-2.2-0.9-3.5-2.7-3.7-5.1c-0.1-0.7,0-1.4,0-2.1c0,0,0,0,0-0.1c0.1,0,0.1,0,0.1,0
		c2.4,0,4.9,0,7.3,0c0,0,0,0,0,0c0,0,0,0,0.1,0h1c1,0,1.9,0,2.9,0c0.1,0,0.2,0,0.3,0C522.9,1006.3,522.9,1006.5,522.9,1006.7z
		 M525.4,1007.9c-0.2,0.4-0.6,0.6-1.1,0.6c0-0.8,0-1.7,0-2.5c0.5,0,0.8,0.2,1.1,0.6C525.6,1007,525.6,1007.5,525.4,1007.9z"/>
	<text transform="matrix(1 0 0 1 513.1382 636.7503)" class="st6 st7">317</text>
	<text transform="matrix(1 0 0 1 534.9966 525.5397)" class="st6 st7">313</text>
	<text transform="matrix(1 0 0 1 488.4858 525.5399)" class="st6 st7">314</text>
	<text transform="matrix(1 0 0 1 537.6638 404.0989)" class="st6 st7">311</text>
	<text transform="matrix(1 0 0 1 491.1531 404.0992)" class="st6 st7">312</text>
	<text transform="matrix(1 0 0 1 511.4463 228.3373)" class="st6 st7">308</text>
	<text transform="matrix(1 0 0 1 444.5859 228.337)" class="st6 st7">307</text>
</g>
<g id="Layer_2">
	
		<rect x="464.8" y="307.2" transform="matrix(6.123234e-17 -1 1 6.123234e-17 162.5661 778.906)" class="st3" width="11.9" height="1.8"/>
	
		<rect x="453.4" y="374.5" transform="matrix(6.123234e-17 -1 1 6.123234e-17 95.4771 846.2826)" class="st3" width="35" height="1.8"/>
	<path class="st3" d="M471.8,391.7v31.5c-0.6-0.2-1.2-0.5-1.9-0.6v-30.8H471.8z"/>
	
		<rect x="469.8" y="356" transform="matrix(0.7482 -0.6635 0.6635 0.7482 -117.8111 403.4504)" class="st3" width="5.6" height="1.8"/>
	
		<rect x="481.1" y="347.4" transform="matrix(0.7482 -0.6635 0.6635 0.7482 -109.3711 408.5646)" class="st3" width="4.9" height="1.8"/>
	
		<rect x="469.8" y="314.2" transform="matrix(0.78 0.6258 -0.6258 0.78 301.2036 -226.3889)" class="st3" width="5.6" height="1.8"/>
	
		<rect x="484.4" y="335.5" transform="matrix(-1 -1.224647e-16 1.224647e-16 -1 1031.9946 672.8197)" class="st3" width="63.2" height="1.8"/>
	
		<rect x="494.8" y="335.1" transform="matrix(6.123234e-17 -1 1 6.123234e-17 179.9252 852.0695)" class="st3" width="42.3" height="1.8"/>
	<rect x="470" y="366.1" class="st3" width="97.5" height="4"/>
	
		<rect x="421.2" y="586.1" transform="matrix(6.123234e-17 -1 1 6.123234e-17 -116.0277 1057.9723)" class="st3" width="99.5" height="1.8"/>
	
		<rect x="427.2" y="692.1" transform="matrix(6.123234e-17 -1 1 6.123234e-17 -222.0772 1164.0219)" class="st3" width="87.6" height="1.8"/>
	
		<rect x="446.9" y="770.5" transform="matrix(6.123234e-17 -1 1 6.123234e-17 -300.6296 1242.1656)" class="st3" width="47.8" height="1.8"/>
	
		<rect x="450.2" y="827.4" transform="matrix(6.123234e-17 -1 1 6.123234e-17 -357.301 1299.3762)" class="st3" width="41.7" height="1.8"/>
	
		<rect x="470.1" y="847.6" transform="matrix(-1 -1.224647e-16 1.224647e-16 -1 1034.1576 1697.0446)" class="st3" width="93.9" height="1.8"/>
	
		<rect x="468" y="854.1" transform="matrix(6.123234e-17 -1 1 6.123234e-17 -379.8603 1330.1815)" class="st3" width="14.4" height="1.8"/>
	
		<rect x="515.8" y="885.7" transform="matrix(-1 -1.224647e-16 1.224647e-16 -1 1048.9979 1773.2355)" class="st3" width="17.4" height="1.8"/>
	
		<rect x="448.1" y="999.1" transform="matrix(6.123234e-17 -1 1 6.123234e-17 -526.999 1473.0066)" class="st3" width="49.8" height="1.8"/>
	
		<rect x="465.9" y="1042.3" transform="matrix(6.123234e-17 -1 1 6.123234e-17 -570.2254 1516.2329)" class="st3" width="14.1" height="1.8"/>
	
		<rect x="407.4" y="1101.6" transform="matrix(6.123234e-17 -1 1 6.123234e-17 -680.1085 1524.9263)" class="st3" width="29.9" height="1.8"/>
	
		<rect x="296.4" y="1041.8" transform="matrix(-1 -1.224647e-16 1.224647e-16 -1 733.4025 2085.3928)" class="st3" width="140.6" height="1.8"/>
	
		<rect x="472.1" y="1041.8" transform="matrix(-1 -1.224647e-16 1.224647e-16 -1 1016.6922 2085.5234)" class="st3" width="72.5" height="1.8"/>
	
		<rect x="494.5" y="1080.4" transform="matrix(6.123234e-17 -1 1 6.123234e-17 -548.2961 1614.4486)" class="st3" width="77.2" height="1.8"/>
	
		<rect x="472.1" y="1078.3" transform="matrix(-1 -1.224647e-16 1.224647e-16 -1 1006.1475 2158.4846)" class="st3" width="62" height="1.8"/>
	
		<rect x="482.7" y="1077.9" transform="matrix(6.123234e-17 -1 1 6.123234e-17 -576.3521 1581.3885)" class="st3" width="39.5" height="1.8"/>
	
		<rect x="458.1" y="1077" transform="matrix(6.123234e-17 -1 1 6.123234e-17 -605.1531 1550.6246)" class="st3" width="29.2" height="1.8"/>
	
		<rect x="465.7" y="1110.2" transform="matrix(6.123234e-17 -1 1 6.123234e-17 -638.5075 1583.7915)" class="st3" width="14" height="1.8"/>
	
		<rect x="414.7" y="770.4" transform="matrix(6.123234e-17 -1 1 6.123234e-17 -333.3161 1209.295)" class="st3" width="46.6" height="1.8"/>
	
		<rect x="470" y="695.2" transform="matrix(-1 -1.224647e-16 1.224647e-16 -1 1037.3009 1392.2966)" class="st3" width="97.3" height="1.8"/>
	
		<rect x="470.4" y="564.1" transform="matrix(-1 -1.224647e-16 1.224647e-16 -1 1037.9176 1130.0015)" class="st3" width="97" height="1.8"/>
	
		<rect x="537.8" y="230.1" transform="matrix(-1.836970e-16 1 -1 -1.836970e-16 797.5505 -333.4085)" class="st3" width="55.4" height="4"/>
	<rect x="470.4" y="239.9" class="st3" width="22.3" height="1.8"/>
	<rect x="437.6" y="240.1" class="st3" width="22.2" height="1.8"/>
	
		<rect x="473.4" y="335" transform="matrix(6.123234e-17 -1 1 6.123234e-17 149.101 820.928)" class="st3" width="23.3" height="1.8"/>
	
		<rect x="480.6" y="322.4" transform="matrix(0.78 0.6258 -0.6258 0.78 308.6786 -231.3046)" class="st3" width="5.3" height="1.8"/>
	<rect x="437.2" y="300" class="st3" width="16.3" height="4"/>
	<rect x="467.7" y="300" class="st3" width="99.1" height="4"/>
	
		<rect x="519.2" y="338.8" transform="matrix(-1.836970e-16 1 -1 -1.836970e-16 886.463 -206.9349)" class="st3" width="54.9" height="1.8"/>
	
		<rect x="456.9" y="222.7" transform="matrix(-1.836970e-16 1 -1 -1.836970e-16 698.6835 -251.3681)" class="st3" width="36.2" height="1.8"/>
	
		<rect x="426.6" y="243.9" transform="matrix(-1.836970e-16 1 -1 -1.836970e-16 683.0322 -193.3654)" class="st3" width="23.1" height="1.8"/>
	<line class="st11" x1="407.7" y1="262.4" x2="431.9" y2="276.5"/>
	<line class="st11" x1="407.5" y1="276.8" x2="432.2" y2="262.3"/>
	
		<rect x="474.5" y="861" transform="matrix(-1.836970e-16 1 -1 -1.836970e-16 1355.5333 381.4273)" class="st4" width="25" height="14.9"/>
	<line class="st11" x1="494.1" y1="856.8" x2="480" y2="881"/>
	<line class="st11" x1="479.7" y1="856.6" x2="494.2" y2="881.2"/>
	
		<rect x="494.4" y="865.4" transform="matrix(-1.836970e-16 1 -1 -1.836970e-16 1375.7285 367.775)" class="st4" width="19.2" height="12.7"/>
	<line class="st11" x1="510.2" y1="862.5" x2="498.2" y2="881"/>
	<line class="st11" x1="498" y1="862.3" x2="510.3" y2="881.2"/>
	
		<rect x="472.7" y="975.1" transform="matrix(-1 -1.224647e-16 1.224647e-16 -1 1036.7168 1952.0764)" class="st3" width="91.4" height="1.8"/>
	<path class="st3" d="M535.4,471.3v1.8h-32.6c0.1-0.6,0.1-1.2,0.2-1.8H535.4z"/>
	<path class="st3" d="M536.1,433.9v1.9H493c-0.3-0.6-0.7-1.3-1.1-1.9H536.1z"/>
	<path class="st3" d="M471.8,504.6v21h-1.9V505C470.6,504.9,471.2,504.7,471.8,504.6z"/>
	
		<rect x="547.3" y="885.7" transform="matrix(-1 -1.224647e-16 1.224647e-16 -1 1112.1111 1773.2355)" class="st3" width="17.4" height="1.8"/>
	
		<rect x="554.8" y="1041.5" transform="matrix(-1 -1.224647e-16 1.224647e-16 -1 1122.2358 2084.8186)" class="st3" width="12.7" height="1.8"/>
	<rect x="505.6" y="239.9" class="st3" width="60.4" height="1.8"/>
	
		<rect x="493.6" y="401.2" transform="matrix(6.123234e-17 -1 1 6.123234e-17 125.1867 929.359)" class="st3" width="67.3" height="1.8"/>
	
		<rect x="479.2" y="517.7" transform="matrix(6.123234e-17 -1 1 6.123234e-17 7.9392 1045.1674)" class="st3" width="94.6" height="1.8"/>
	<path class="st3" d="M549.5,435.8v-1.9h14.3c0.1,0.6,0.2,1.3,0.4,1.9H549.5z"/>
	<path class="st3" d="M549.5,473.2v-1.9h15c0.1,0.6,0.2,1.3,0.4,1.9H549.5z"/>
	
		<rect x="414.7" y="907.6" transform="matrix(6.123234e-17 -1 1 6.123234e-17 -470.5663 1346.5453)" class="st3" width="46.6" height="1.8"/>
	
		<rect x="428.6" y="1033.3" transform="matrix(6.123234e-17 -1 1 6.123234e-17 -596.2651 1472.244)" class="st3" width="18.7" height="1.8"/>
	
		<rect x="407.2" y="1056.3" transform="matrix(6.123234e-17 -1 1 6.123234e-17 -634.8533 1479.6711)" class="st3" width="30.4" height="1.8"/>
	
		<rect x="418.4" y="218.8" transform="matrix(-1.836970e-16 1 -1 -1.836970e-16 653.5469 -214.093)" class="st3" width="30.8" height="1.8"/>
	<rect x="470" y="563" class="st3" width="97.5" height="4"/>
	<rect x="470" y="693.2" class="st3" width="97.5" height="4"/>
</g>
</svg>
